<?xml version="1.0" standalone="no"?>
<!DOCTYPE svg PUBLIC "-//W3C//DTD SVG 1.1//EN" "http://www.w3.org/Graphics/SVG/1.1/DTD/svg11.dtd" >
<svg>
<metadata>
Created by FontForge 20110222 at Mon Mar  7 12:53:27 2011
 By www-data
</metadata>
<defs>
<font id="Canadian" horiz-adv-x="567" >
  <font-face 
    font-family="Canadian"
    font-weight="400"
    font-stretch="normal"
    units-per-em="1000"
    panose-1="2 0 5 3 6 0 0 2 0 4"
    ascent="800"
    descent="-200"
    x-height="467"
    cap-height="667"
    bbox="-46 -207 1080 889"
    underline-thickness="50"
    underline-position="-55"
    unicode-range="U+0020-2122"
  />
    <missing-glyph />
    <glyph glyph-name="space" unicode=" " horiz-adv-x="278" 
 />
    <glyph glyph-name="exclam" unicode="!" horiz-adv-x="267" 
d="M133 116v-1q-27 0 -46 -19q-20 -20 -20 -48q0 -26 20 -46q19 -19 46 -19q29 0 48 19t19 46q0 29 -19 48q-18 18 -48 20zM156 162l41 382q1 7 1.5 13.5t1.5 12.5v16q0 29 -18 49q-20 18 -49 18q-28 0 -46 -18q-19 -19 -19 -47q0 -5 1 -9q1 -8 3 -30l39 -387h45z" />
    <glyph glyph-name="quotedbl" unicode="&#x22;" horiz-adv-x="372" 
d="M140 399l19 268h-109l18 -268h72zM303 399l18 268h-108l17 -268h73z" />
    <glyph glyph-name="numbersign" unicode="#" 
d="M539 285h-106l17 110h105l13 89h-105l29 183h-101l-28 -183h-113l29 183h-100l-29 -183h-106l-14 -89h107l-17 -110h-107l-14 -89h107l-31 -196h100l31 196h112l-31 -196h101l31 196h106zM349 395l-17 -110h-112l17 110h112z" />
    <glyph glyph-name="dollar" unicode="$" 
d="M252 651v-1q-95 -5 -146 -56q-52 -52 -52 -141q0 -84 57 -118t125 -54q2 -1 4 -1.5t4 -1.5q3 -1 8 -1v-229h-8t-9 1h-9t-9 1q-15 2 -29.5 6t-28.5 11q-27 11 -44 39q4 -1 10 -3q3 -1 8 -1q20 0 34 17t14 40q0 29 -16 45q-17 17 -44 17q-31 0 -50 -25q-20 -26 -20 -64
q0 -65 46 -95q45 -30 101 -41q7 -1 14 -1.5t14 -1.5t13 -1.5t13 -1.5v-61h52v61q88 9 149 52t61 140q0 88 -58 124q-59 35 -127 57q-2 1 -4 1.5t-4 1.5t-4 1t-4 1q-1 1 -2 1t-2 1q-3 0 -5 2v219q20 -1 37.5 -4.5t31.5 -8.5q28 -11 42 -30q-23 -5 -33 -18q-12 -14 -12 -38
t17 -39q16 -16 41 -16q29 0 48 22q18 22 18 53q0 56 -53 95q-55 40 -137 44v37h-52v-37zM304 49v214q61 -15 89 -38q27 -24 27 -64q0 -46 -28 -74q-27 -27 -88 -38zM252 590v-208q-2 1 -3 1t-2 1q-2 1 -3 1t-2 1q-19 7 -35.5 14.5t-31.5 17.5q-31 18 -31 64q0 47 26 73
q24 24 82 35z" />
    <glyph glyph-name="percent" unicode="%" horiz-adv-x="719" 
d="M549 335v-1q-59 0 -90 -45q-33 -47 -33 -128q0 -83 33 -126q31 -45 90 -45q61 0 88 43q28 45 32 95q1 5 1 9t1 9v17q0 79 -33 126q-33 44 -89 46zM549 295v-1q32 0 46 -32q13 -30 13 -106q0 -68 -13 -97q-13 -31 -46 -31q-31 0 -44 34q-13 32 -13 114q0 64 13 91t44 28z
M541 661l-398 -661h55l403 661h-60zM169 677v-1q-59 0 -90 -46q-33 -47 -33 -127q0 -82 33 -127q31 -46 90 -46q60 0 87 44t33 95q1 5 1 9t1 9v17q0 79 -33 126q-32 45 -89 47zM169 636v-1q32 0 45 -31q13 -30 13 -106q0 -69 -13 -98q-14 -30 -45 -30t-44 33q-13 32 -13 114
q0 65 13 91q13 27 44 28z" />
    <glyph glyph-name="ampersand" unicode="&#x26;" horiz-adv-x="735" 
d="M454 377v-53l36 -1q18 0 27 -9q9 -11 9 -28v-2v-2q-1 -14 -4 -28t-10 -30q-14 -32 -46 -79q-20 26 -39 52.5t-38 52.5q-38 52 -75 108q47 22 88 59q38 36 38 95q0 54 -37 88t-97 34q-67 0 -108 -38t-41 -101q0 -30 10 -59q5 -16 12 -32.5t17 -34.5q-66 -29 -114 -72
q-49 -43 -49 -123q0 -85 63 -136t168 -51q51 0 96 14q43 14 81 43q13 -10 24.5 -18t22.5 -14q23 -12 43 -18q6 -2 12 -3l12 -2t12 -1.5t13 -0.5q72 0 113 54q39 53 41 155l-59 -1v-11q0 -5 -1 -11l-3 -24q-6 -33 -24 -60q-18 -28 -55 -28q-7 0 -10 1q-5 0 -11 2
q-18 5 -31 14q-17 11 -31 26q4 5 7 9.5t7 9.5t7 9.5t7 9.5q8 11 14.5 21t13.5 21q12 21 21 39q8 17 15.5 30.5t12.5 23.5q10 19 21 30t21 14q10 1 29 3h31v53h-262zM225 322v-1q20 -31 40 -61t41 -60q39 -58 90 -115q-5 -3 -9 -6t-9 -5l-18 -9q-17 -7 -35 -12q-16 -4 -37 -4
q-66 0 -109 41q-43 40 -43 106q0 35 16 61q17 26 52 51q2 2 5 3.5t5 3.5t5 3.5t6 3.5zM287 406v-1q-10 15 -17 29.5t-12 28.5q-11 30 -11 47q0 29 18 49q16 19 43 19t44 -17q16 -17 16 -47q0 -13 -3 -25q-5 -12 -12 -24q-5 -7 -11 -14t-14 -14q-17 -16 -41 -31z" />
    <glyph glyph-name="quotesingle" unicode="'" horiz-adv-x="210" 
d="M141 399l19 268h-109l18 -268h72z" />
    <glyph glyph-name="parenleft" unicode="(" horiz-adv-x="357" 
d="M364 683v-1q-63 -14 -111 -50q-25 -19 -46.5 -41t-40.5 -48q-41 -62 -60 -136q-19 -73 -19 -179q0 -172 77 -291q77 -120 200 -144v55q-107 45 -136 137q-14 46 -22 94.5t-9 99.5q-1 8 -1 16v16v32v22q0 12 1 23v23t1 23q2 46 11.5 89t25.5 85q31 82 129 120v55z" />
    <glyph glyph-name="parenright" unicode=")" horiz-adv-x="357" 
d="M-7 -207h1q133 28 195 135q31 54 50 111t26 119q2 11 2.5 22t1.5 22t1 22v22q0 171 -76 292q-76 119 -201 145l1 -56q102 -43 133 -131q30 -88 33 -187q1 -10 1 -19v-19v-39v-46q-1 -12 -1 -24t-1 -23q-2 -46 -11.5 -88.5t-25.5 -84.5q-31 -82 -129 -118v-55z" />
    <glyph glyph-name="asterisk" unicode="*" horiz-adv-x="451" 
d="M273 624v-1q1 1 1 2t1 3v5q1 1 1 5v4q0 19 -14 33q-14 12 -37 12t-36 -13q-15 -14 -15 -32q0 -13 5 -28q4 -14 12 -27q3 -7 6 -13t5 -13q5 -15 5 -25q0 -3 -2 -5t-5 -2q-10 0 -17 6q-8 4 -17 13q-4 4 -6 7q-4 3 -7 7q-9 10 -24 22q-13 10 -31 10q-21 0 -34 -15
q-14 -17 -14 -39t13 -34q13 -13 38 -13q5 0 9 0.5t9 1.5t9 1t9 1q4 1 8 1.5t9 1.5t9 1h9q10 0 16 -3q5 -3 5 -8q0 -4 -4 -8t-13 -10q-4 -2 -7 -4t-7 -4t-8 -5t-9 -5q-9 -5 -17 -11.5t-16 -13.5q-15 -14 -15 -34q0 -17 14 -31t31 -17q1 -1 5 -1h4q23 0 34 18q10 16 15 38
q1 4 2 7.5t2 7.5t1 7t1 7q1 1 1 2t1 2v3q4 13 9 21q4 7 8 7t5 -1q3 -3 4 -6q1 -2 2 -4.5t2 -4.5q1 -5 3 -12q1 -1 1 -2t1 -2v-6l2 -6l2 -6q1 -4 1 -7t1 -6q6 -19 17 -39q10 -18 34 -18h4q2 0 3 1q16 3 32 17q14 14 14 31q0 20 -15 34q-15 13 -33 24q-6 4 -12 7t-11 6
q-11 6 -18 12q-4 4 -5 6q-2 4 -2 6q0 5 6 8q4 3 15 3h9t9 -1t9 -1t9 -1l18 -3q5 -1 9 -1h9q23 0 37 12q13 12 13 34t-14 39q-14 15 -34 15q-17 0 -30 -10q-7 -5 -13.5 -10.5t-12.5 -11.5l-23 -23q-10 -10 -22 -10q-4 0 -6 2t-2 5q0 9 4 20q2 5 4 11l4 12q1 2 1 3t1 3t1 3
t1 3q2 5 4 9t4 9q4 7 6 15z" />
    <glyph glyph-name="plus" unicode="+" 
d="M67 382v-91h168v-163h98v163h167v91h-167v163h-98v-163h-168z" />
    <glyph glyph-name="comma" unicode="," horiz-adv-x="267" 
d="M71 -135q60 7 99 49q38 41 38 97q0 47 -22 75t-60 28q-27 0 -46 -19q-20 -20 -20 -49q0 -24 17 -41t39 -17q12 0 16 1q8 2 11 3q2 1 6 5q2 1 3.5 2t3.5 2q-3 -40 -23 -63q-21 -24 -62 -32v-41z" />
    <glyph glyph-name="hyphen" unicode="-" horiz-adv-x="241" 
d="M10 319v-90h221v90h-221z" />
    <glyph glyph-name="period" unicode="." horiz-adv-x="267" 
d="M134 114v-1q-28 0 -47 -19t-19 -47q0 -27 19 -46t47 -19t47 19q19 18 19 46t-19 47q-19 18 -47 20z" />
    <glyph glyph-name="slash" unicode="/" horiz-adv-x="330" 
d="M232 667l-278 -870h83l279 870h-84z" />
    <glyph glyph-name="zero" unicode="0" 
d="M280 654v-1h-7q-5 0 -8 -1q-40 -3 -73 -19q-36 -16 -61 -43q-43 -43 -61 -107q-19 -63 -19 -167q0 -151 62 -240t167 -89q113 0 175 89q61 88 61 251q0 157 -61 242q-61 84 -175 85zM278 595v-1q32 0 58 -12q25 -12 42 -42q16 -28 21 -70q2 -21 3.5 -56t1.5 -86
q0 -96 -3 -136q-2 -21 -6 -39t-11 -33l-3 -9q-3 -5 -5 -10q-14 -26 -39 -41q-26 -15 -59 -15q-35 0 -60 24q-26 23 -38 63q-1 2 -1 6q-1 1 -1 2t-1 2q-4 16 -6.5 33.5t-3.5 37.5q-3 39 -3 123q0 74 3 110q1 33 11 63l2 6t2 7t5 12q12 29 35 44q23 16 56 17z" />
    <glyph glyph-name="one" unicode="1" 
d="M348 650l-72 -1q-11 -60 -51 -91q-41 -32 -110 -36v-55h131v-352q0 -36 -12 -49q-10 -13 -40 -13h-4h-75v-53h362v53l-72 -1q-35 0 -45 13q-12 13 -12 51v534z" />
    <glyph glyph-name="two" unicode="2" 
d="M466 220l1 -17q0 -56 -17 -84q-18 -28 -56 -28q-26 0 -51 6q-13 3 -25.5 6.5t-25.5 7.5t-25.5 7t-25.5 6q-26 6 -52 6q-7 0 -12 -0.5t-10 -1.5t-10 -3l-10 -4q-4 -2 -12 -8q-4 -2 -7 -5t-7 -6q5 24 12 37q6 14 18 26q4 4 7 6q4 4 7 6q14 11 30 20.5t33 17.5t34.5 15.5
t35.5 15.5q38 16 73 34t67 40q64 42 64 141q0 86 -65 139q-67 53 -172 53q-90 0 -152 -52q-63 -53 -63 -126q0 -42 24 -70q24 -29 59 -29q33 0 53 19q20 20 20 49q0 27 -16 43t-42 16h-7q-4 0 -6 -1q-8 -2 -12 -4q-3 -2 -7 -4t-9 -4q15 44 50 68q34 24 86 24q67 0 107 -32
q39 -33 39 -89q0 -37 -20 -69q-19 -31 -58 -51l-95 -53q-8 -4 -14.5 -8t-13.5 -8q-14 -8 -24 -15q-70 -47 -92 -102q-23 -57 -23 -155h64v3v4q0 22 7 39q6 18 34 18h12q2 -1 5 -1t5 -1q11 -2 23 -5t23 -8t22.5 -10.5t23.5 -10.5q28 -14 60 -24q33 -11 65 -11q71 0 95 48
q23 47 28 106q1 10 1.5 19t0.5 18v36h-52z" />
    <glyph glyph-name="three" unicode="3" 
d="M208 310v-1q10 2 13 3q7 0 10 1h5h5q72 0 114 -33q41 -33 41 -90q0 -68 -44 -107q-45 -39 -123 -39q-46 0 -77 15q-31 13 -46 42q37 0 57 15q18 15 18 45q0 31 -19 50q-20 20 -48 20q-35 0 -57 -25t-22 -68q0 -8 1 -11q0 -4 2 -12q4 -21 20 -45q14 -24 35 -40
q32 -24 67 -33q34 -10 91 -10q112 0 183 55q71 54 71 140q0 65 -35 106q-35 40 -108 57q67 23 97 58q32 35 32 85q0 73 -65 120q-65 45 -169 45q-90 0 -150 -42q-60 -44 -60 -107q0 -35 19 -57q20 -23 49 -23q32 0 53 18q20 18 20 46q0 35 -21 46q-24 11 -49 11q20 21 53 34
q33 11 69 11q57 0 98 -29q40 -30 40 -74q0 -58 -37 -89q-38 -32 -107 -32h-2h-4q-5 0 -8 1q-2 0 -12 2v-59z" />
    <glyph glyph-name="four" unicode="4" 
d="M414 257v393h-70l-304 -393v-70h276v-72q0 -33 -13 -47q-14 -15 -39 -15h-4h-57v-53h303v53l-30 -1q-37 0 -49 13q-13 13 -13 51v71h92v70h-92zM316 257h-204l204 265v-265z" />
    <glyph glyph-name="five" unicode="5" 
d="M156 542v-1q2 -1 7 -1q2 -1 3 -1t3 -1q10 -2 20.5 -3t21.5 -2t25.5 -1.5t31.5 -0.5q78 0 135 22q56 22 97 93l-16 9q-8 -4 -11 -5l-12 -6q-34 -15 -73 -21q-38 -6 -94 -6q-16 0 -31 1.5t-30 3.5q-16 2 -29.5 5t-26.5 6t-23.5 6t-19.5 5q-20 4 -27 6l-27 -327l60 -1
q22 27 50 40q27 12 66 12q71 0 111 -40t40 -109q0 -84 -42 -132q-44 -48 -117 -48q-40 0 -71 15q-33 16 -47 40q28 0 51 15q21 15 21 47q0 28 -19 46q-20 18 -48 18q-33 0 -54 -25q-21 -26 -21 -65q0 -67 59 -108t150 -41q110 0 181 68q70 67 70 174q0 92 -65 152t-166 60
q-45 0 -81 -13q-19 -7 -35.5 -15.5t-30.5 -19.5z" />
    <glyph glyph-name="six" unicode="6" 
d="M171 351v-1v15q0 8 1 16t1.5 16t2.5 16q9 70 43 124q35 56 113 56q28 0 49 -6q22 -7 34 -19q-21 -2 -31 -14q-11 -14 -11 -38q0 -27 17 -44q16 -18 43 -18q33 0 54 22t21 56q0 53 -50 86q-51 33 -133 33q-127 0 -196 -96q-69 -98 -69 -277q0 -142 62 -218q61 -75 180 -75
q102 0 160 61q59 62 59 165q0 91 -57 147q-58 55 -153 55q-39 0 -73 -15q-17 -8 -34 -19.5t-33 -27.5zM291 347v-1q57 0 90 -38t33 -103q0 -78 -31 -119q-31 -43 -89 -43q-55 0 -88 42q-33 40 -33 108q0 71 32 112t86 42z" />
    <glyph glyph-name="seven" unicode="7" 
d="M468 645v-1q0 -22 -10 -38t-35 -16q-6 0 -12 0.5t-11 1.5q-13 2 -23 6q-7 2 -14 4.5t-14 5.5l-30 12q-26 10 -54 21q-29 9 -61 9q-30 0 -54 -15q-23 -14 -43 -44v54h-59v-251h59v72q0 38 23 58t67 20q23 0 42 -4q10 -2 20 -5t20 -5q10 -3 20 -5.5t21 -4.5q22 -5 41 -5
q30 0 54 11q22 10 44 34q-8 -25 -24 -50q-9 -14 -19.5 -27t-21.5 -27q-5 -6 -9.5 -12t-9.5 -11l-21 -24q-11 -12 -21.5 -24t-21.5 -23q-11 -12 -20 -23t-17 -21q-53 -70 -70 -151q-16 -80 -16 -167h105q1 88 18 168q17 78 64 154q4 4 6 7l2 4l2 4l71 101q11 15 19 28.5
t15 25.5q7 11 11.5 22.5t8.5 22.5l4 18l4 18q1 9 1.5 19t0.5 21v2v2v12v7t-1 9h-51z" />
    <glyph glyph-name="eight" unicode="8" 
d="M382 351v-1q45 22 83 58q36 34 36 91q0 71 -59 113q-61 41 -161 41q-103 0 -161 -49q-59 -50 -59 -134q0 -51 28 -88q26 -37 81 -58q-66 -34 -94 -73q-28 -38 -28 -95q0 -79 63 -124t173 -45q103 0 168 54t65 139q0 58 -33 100q-35 43 -102 71zM226 296v-1q18 -7 37 -12
q11 -4 21.5 -7.5t21.5 -8.5q45 -17 80 -42q36 -27 36 -72q0 -43 -39 -73q-41 -30 -99 -30q-70 0 -113 33q-44 33 -44 85q0 37 26 72q26 33 73 56zM326 377v-1q-15 7 -34 14q-10 4 -20 7.5t-21 8.5q-39 17 -69 40q-31 22 -31 57q0 40 36 66q35 25 93 25q66 0 101 -28
q35 -29 35 -78q0 -21 -8 -39q-7 -16 -26 -34q-9 -9 -24 -19q-7 -5 -15 -9.5t-17 -9.5z" />
    <glyph glyph-name="nine" unicode="9" 
d="M396 288v-1v-25q-1 -7 -1.5 -13t-1.5 -13q-4 -36 -14 -69t-27 -62q-35 -60 -121 -60q-24 0 -39 4q-8 2 -16 5.5t-15 8.5q-2 1 -5 4q-1 1 -2 1.5t-2 1.5q23 5 33 17q10 11 10 34q0 29 -18 46q-19 17 -48 17q-32 0 -51 -22q-20 -23 -20 -56q0 -52 50 -85q49 -34 125 -34
q136 0 205 93t69 276q0 122 -52 210q-53 87 -190 87q-98 0 -158 -61q-61 -61 -61 -163q0 -89 58 -146q57 -57 146 -57q14 0 26 1.5t23 3.5q20 4 43 17q7 4 13.5 8t13.5 9q12 8 27 23zM274 595v-1q52 0 87 -41q33 -41 33 -106q0 -73 -31 -113q-32 -41 -88 -41q-57 0 -89 38
q-33 37 -33 105q0 74 33 116q31 41 88 43z" />
    <glyph glyph-name="colon" unicode=":" horiz-adv-x="267" 
d="M134 114v-1q-28 0 -47 -19t-19 -47q0 -27 19 -46t47 -19t47 19q19 18 19 46t-19 47q-19 18 -47 20zM134 465v-1q-28 0 -47 -19t-19 -47q0 -27 19 -46q20 -20 47 -20t47 20q19 19 19 46q0 28 -19 47q-19 18 -47 20z" />
    <glyph glyph-name="semicolon" unicode=";" horiz-adv-x="267" 
d="M71 -135q60 7 99 49q38 41 38 97q0 47 -22 75t-60 28q-27 0 -46 -19q-20 -20 -20 -49q0 -24 17 -41t39 -17q12 0 16 1q8 2 11 3q2 1 6 5q2 1 3.5 2t3.5 2q-3 -40 -23 -63q-21 -24 -62 -32v-41zM128 465v-1q-27 0 -46 -19q-20 -20 -20 -47q0 -28 19 -47t47 -19t47 19
t19 47t-19 47q-19 18 -47 20z" />
    <glyph glyph-name="less" unicode="&#x3c;" horiz-adv-x="500" 
d="M466 585l-433 -211v-84l433 -211v97l-329 156l329 155v98z" />
    <glyph glyph-name="equal" unicode="=" 
d="M67 303v-86h433v86h-433zM67 465v-86h433v86h-433z" />
    <glyph glyph-name="greater" unicode="&#x3e;" horiz-adv-x="500" 
d="M33 79l433 211v83l-433 212v-98l329 -155l-329 -155v-98z" />
    <glyph glyph-name="question" unicode="?" horiz-adv-x="557" 
d="M247 116v-1q-28 0 -47 -19t-19 -48q0 -27 19 -46t47 -19t47 19t19 46q0 29 -19 48q-19 18 -47 20zM275 165v-1q6 57 37 88q33 33 67 57q39 28 72 63q33 34 33 101q0 81 -63 131q-64 49 -171 49q-98 0 -156 -51q-60 -51 -60 -134q0 -42 26 -73q25 -31 62 -31q31 0 52 21
q21 19 21 50q0 26 -17 45q-17 18 -44 18q-8 0 -17 -3q-8 -2 -23 -9q7 48 44 77q36 27 92 27q62 0 103 -33q40 -33 40 -83q0 -37 -15 -62q-8 -13 -17.5 -25.5t-20.5 -23.5l-6 -6t-5 -6l-12 -12q-29 -30 -51 -69q-23 -40 -25 -105h54z" />
    <glyph glyph-name="at" unicode="@" horiz-adv-x="733" 
d="M484 493l-10 -53q-15 31 -41 48q-25 16 -61 16q-76 0 -127 -60q-52 -61 -52 -150q0 -65 42 -108q40 -45 100 -45q38 0 71 18q34 18 54 49q4 -27 25 -44q20 -17 48 -17q65 0 116 70q51 69 51 157q0 135 -89 221q-89 84 -232 84t-246 -101q-102 -102 -102 -245
q0 -154 100 -250q98 -97 256 -97q64 0 117 10q28 5 53 12t48 17l-18 62q-23 -10 -46.5 -17t-48.5 -12q-47 -10 -105 -10q-130 0 -209 78t-79 207q0 115 83 200q83 83 199 83t187 -65q70 -64 70 -172q0 -15 -3 -34q-3 -23 -10 -43q-10 -35 -32 -66q-21 -31 -53 -31
q-15 0 -23 11q-9 10 -9 29q0 3 0.5 7.5t1.5 10.5q1 5 2 12.5t3 15.5l39 202h-70zM453 349v-1q0 -57 -29 -97q-28 -40 -72 -40q-34 0 -57 26t-23 67q0 52 32 90t74 38q33 0 54 -23q21 -24 21 -60z" />
    <glyph glyph-name="A" unicode="A" horiz-adv-x="757" 
d="M497 222l47 -112q3 -7 5 -11.5t3 -7.5q2 -10 2 -12q0 -14 -10 -18q-8 -4 -30 -4h-8h-57v-57h325v57l-36 -1q-33 0 -46 15q-15 15 -25 36q-3 4 -7 14q-2 4 -3.5 7.5t-3.5 7.5l-227 531h-105l-207 -518q-3 -8 -6 -14.5t-5 -12.5q-3 -6 -6 -11.5t-5 -10.5q-17 -29 -37 -36
q-18 -7 -60 -7h-11v-57h296v57l-53 -1q-30 0 -43 8q-12 7 -12 27q0 15 4 28q3 15 9 29q2 5 3.5 9t3.5 8t3 8t3 9t4.5 10t4.5 10l4 10l4 10h282zM472 283h-234l111 286z" />
    <glyph glyph-name="B" unicode="B" horiz-adv-x="737" 
d="M534 353v-1q61 10 96 51q34 38 34 97q0 80 -60 124q-59 41 -175 43h-396v-57l38 -1q40 0 54 -11q12 -11 12 -47v-436q0 -38 -12 -48q-11 -10 -48 -10h-6h-38v-57h409h7h7q88 1 166 43q75 40 75 147q0 69 -42 111q-43 41 -121 52zM245 61v255l190 -1q62 0 102 -35
q39 -35 39 -91q0 -65 -38 -97q-37 -31 -112 -31h-4h-177zM245 377v229l172 -1q64 0 99 -29q34 -28 34 -84q0 -53 -35 -85q-35 -30 -94 -30h-4h-172z" />
    <glyph glyph-name="C" unicode="C" horiz-adv-x="722" 
d="M583 607v-1q-20 16 -40 28q-10 6 -19 11l-18 10q-29 13 -62 21q-33 6 -78 6q-139 0 -227 -102q-89 -103 -89 -262q0 -148 92 -242q91 -93 239 -93q132 0 212 76q79 75 93 204l-67 -1q-17 -92 -76 -147q-62 -56 -147 -56q-102 0 -163 72q-62 73 -62 191q0 132 63 212
q63 78 169 78q82 0 141 -57q59 -59 69 -149h54v268h-54z" />
    <glyph glyph-name="D" unicode="D" horiz-adv-x="788" 
d="M33 610l38 -1q40 0 54 -11q12 -11 12 -47v-436q0 -38 -12 -48q-11 -10 -48 -10h-6h-38v-57h390q145 0 231 92q84 91 84 252q0 145 -84 234q-85 87 -223 89h-398v-57zM245 61v545l147 -1q109 0 168 -66q57 -68 57 -195q0 -140 -54 -212q-53 -71 -158 -71h-2h-158z" />
    <glyph glyph-name="E" unicode="E" horiz-adv-x="753" 
d="M251 606l233 -1q86 0 111 -58q24 -59 24 -129h59v249h-645v-57l44 -1q40 0 54 -11q12 -11 12 -47v-436q0 -38 -12 -48q-11 -10 -48 -10h-6h-44v-57h656v285l-61 -1q0 -119 -27 -171t-157 -52h-4h-189v257l99 -1q42 0 61 -22t19 -73v-35h58v315h-58v-45q0 -42 -20 -62
t-58 -20h-4h-97v231z" />
    <glyph glyph-name="F" unicode="F" horiz-adv-x="671" 
d="M251 606l201 -1q79 0 119 -43q39 -44 39 -129v-1v-1v-8q0 -7 -1 -12h59v256h-635v-57l44 -1q40 0 54 -11q12 -11 12 -47v-436q0 -38 -12 -48q-11 -10 -48 -10h-6h-44v-57h328v57l-44 -1q-39 0 -53 11q-13 10 -13 49v201l95 -1q40 0 60 -21q18 -21 18 -67v-44h61v323h-61
v-41q0 -48 -18 -69q-17 -20 -55 -20h-4h-96v229z" />
    <glyph glyph-name="G" unicode="G" horiz-adv-x="801" 
d="M585 607v-1q-40 40 -90 58t-112 18q-150 0 -242 -101q-91 -100 -91 -268q0 -144 96 -237t244 -93q70 0 121 25q52 25 87 75l27 -77h54v242q0 25 10 34q10 8 37 10h55v56h-323v-56l54 -1q35 0 47 -9t12 -33v-62q0 -52 -49 -89t-120 -37q-104 0 -167 71q-64 70 -64 185
q0 132 60 212q60 78 163 78q93 0 148 -50q54 -51 72 -139h56v259h-56z" />
    <glyph glyph-name="H" unicode="H" horiz-adv-x="857" 
d="M606 319v-204q0 -38 -12 -48q-11 -10 -48 -10h-6h-44v-57h328v57l-44 -1q-39 0 -53 11q-13 10 -13 49v434q0 38 13 48q14 11 53 12h44v57h-328v-57l44 -1q40 0 54 -11q12 -11 12 -47v-171h-354v170q0 38 13 48q14 11 53 12h44v57h-328v-57l44 -1q40 0 54 -11
q12 -11 12 -47v-436q0 -38 -12 -48q-11 -10 -48 -10h-6h-44v-57h328v57l-44 -1q-39 0 -53 11q-13 10 -13 49v203h354z" />
    <glyph glyph-name="I" unicode="I" horiz-adv-x="395" 
d="M34 610l44 -1q40 0 54 -11q12 -11 12 -47v-436q0 -38 -12 -48q-11 -10 -48 -10h-6h-44v-57h328v57l-44 -1q-39 0 -53 11q-13 10 -13 49v434q0 38 13 48q14 11 53 12h44v57h-328v-57z" />
    <glyph glyph-name="J" unicode="J" horiz-adv-x="498" 
d="M138 611l48 -1q40 0 54 -11q12 -12 12 -48v-352v-6v-7q-2 -56 -18 -102t-89 -46q-29 0 -48 9q-20 8 -20 20q0 2 2 4l3 3q2 2 5 3.5l7 3.5t7.5 4t7.5 4q5 4 10.5 8.5t10.5 11.5q10 13 10 36q0 30 -22 51q-23 20 -54 20q-34 0 -56 -27q-24 -27 -24 -64q0 -61 51 -101
q52 -41 127 -41q51 0 90 14q36 13 65 42q23 24 34 59q9 33 9 92v360q0 37 13 49q14 11 53 12h38v56h-326v-56z" />
    <glyph glyph-name="K" unicode="K" horiz-adv-x="781" 
d="M376 349l152 -213q4 -6 7 -9q2 -2 4 -5l4 -6q4 -4 5 -6t2 -3t2 -3q2 -4 4.5 -8t4.5 -8q4 -7 4 -14q0 -9 -8 -14q-8 -3 -21 -3h-7h-61v-57h326v57l-25 -1q-8 0 -13.5 0.5t-10.5 1.5q-11 2 -18 7q-9 7 -17 18q-9 9 -25 33l-223 307l138 120q8 7 14.5 13t13.5 11t13 9.5
t12 8.5q18 12 39 18q10 3 22.5 4.5t27.5 2.5h33v57h-339v-57l77 -1q15 0 21 -3q5 -3 5 -13q0 -9 -7 -19q-8 -11 -27 -27l-37 -34l-223 -199v236q0 38 13 48q14 11 53 12h38v57h-316v-57l38 -1q40 0 54 -11q12 -11 12 -47v-436q0 -38 -12 -48q-11 -10 -48 -10h-6h-38v-57h316
v57l-38 -1q-39 0 -53 11q-13 10 -13 49v117z" />
    <glyph glyph-name="L" unicode="L" horiz-adv-x="643" 
d="M589 283v-1v-10q-1 -4 -1 -11q-5 -75 -30 -138q-26 -62 -119 -62h-2h-186v489q0 38 13 48q14 11 53 12h47v57h-331v-57l44 -1q40 0 54 -11q12 -11 12 -47v-436q0 -38 -12 -48q-11 -10 -48 -10h-6h-44v-57h613v283h-57z" />
    <glyph glyph-name="M" unicode="M" horiz-adv-x="982" 
d="M493 170l-196 497h-264v-57l38 -1q40 0 54 -11q12 -11 12 -47v-436q0 -38 -12 -48q-11 -10 -48 -10h-6h-38v-57h277v57l-38 -1q-40 0 -53 11q-13 10 -13 49v476l241 -592h51l238 592v-477q0 -38 -12 -48q-11 -10 -48 -10h-6h-38v-57h316v57l-38 -1q-39 0 -53 11
q-13 10 -13 49v434q0 38 13 48q14 11 53 12h38v57h-259z" />
    <glyph glyph-name="N" unicode="N" horiz-adv-x="823" 
d="M261 667h-228v-57l38 -1q40 0 54 -11q12 -11 12 -47v-436q0 -38 -12 -48q-11 -10 -48 -10h-6h-38v-57h283v57l-44 -1q-40 0 -53 11q-13 10 -13 49v437l413 -553h81v550q0 38 13 48q14 11 53 12h30v57h-274v-58q82 0 96 -9q14 -11 14 -49v-384z" />
    <glyph glyph-name="O" unicode="O" horiz-adv-x="803" 
d="M398 683v-1q-159 0 -254 -98q-94 -98 -94 -258q0 -154 96 -248q95 -95 249 -95q170 0 264 97q94 95 94 264q0 87 -39 165q-41 76 -108 120q-20 13 -43.5 23t-49.5 17t-55 10t-60 4zM401 621v-1q104 0 168 -76t64 -201q0 -145 -60 -221q-62 -78 -174 -78q-48 0 -93 20
q-44 20 -75 55q-33 39 -46 87q-14 51 -14 125q0 135 62 212q61 76 168 78z" />
    <glyph glyph-name="P" unicode="P" horiz-adv-x="669" 
d="M251 304l199 -1q115 0 167 43q52 42 52 136q0 109 -65 147q-63 36 -160 38h-411v-57l44 -1q40 0 54 -11q12 -11 12 -47v-436q0 -38 -12 -48q-11 -10 -48 -10h-6h-44v-57h334v57l-51 -1q-39 0 -52 11q-13 10 -13 49v188zM251 365v241l162 -1q70 0 105 -30q34 -30 34 -89
q0 -62 -33 -92q-34 -29 -101 -29h-4h-163z" />
    <glyph glyph-name="Q" unicode="Q" horiz-adv-x="810" 
d="M755 100v-8q-2 -64 -14 -83q-14 -21 -48 -21q-23 0 -42 12t-37 40q71 53 105 125t34 174q0 72 -26 139q-27 66 -75 114q-46 46 -108 68t-146 22q-161 0 -254 -97q-94 -97 -94 -268q0 -150 99 -241q97 -93 255 -93h6h4q17 1 33.5 2.5t32.5 4.5q16 2 30 5.5t27 7.5
q14 -25 30 -44t34 -32q37 -26 79 -26q78 0 101 50q11 25 17.5 52.5t7.5 57.5q1 5 1 10v10v19h-52zM497 61v-1q-20 -8 -42 -12q-11 -2 -23.5 -3t-26.5 -1q-23 0 -41 3q-19 1 -37 9q-3 0 -4 1q-2 1 -3 1t-2 1q-5 7 -6 12q-2 2 -2.5 5t-1.5 5v6q-1 2 -1 6q0 27 20 45
q19 18 47 18q33 0 65 -24q30 -23 58 -71zM565 109v-1q-4 4 -5 7l-6 6q-33 42 -74 70q-41 27 -101 27q-48 0 -82 -29q-34 -30 -34 -75v-4v-4q1 -2 1 -4t1 -4q0 -2 2 -12q-45 31 -70 92q-26 61 -26 139q0 88 19 145q18 58 61 100q22 21 51 35q32 14 62 20q4 1 8 1t9 1t9 1h9
q108 0 171 -76q62 -77 62 -209q0 -75 -16 -129q-16 -56 -51 -97z" />
    <glyph glyph-name="R" unicode="R" horiz-adv-x="764" 
d="M706 200v-75q0 -31 -8 -47q-8 -15 -27 -15q-23 0 -30 19q-4 10 -6.5 30t-3.5 52q-1 68 -20 113q-20 43 -93 63q77 8 119 51q41 44 41 113v11q-1 3 -1 10q-4 29 -18 58q-13 26 -35 45q-26 21 -56 30q-32 8 -83 9h-452v-57l38 -1q40 0 54 -11q12 -11 12 -47v-436
q0 -38 -12 -48q-11 -10 -48 -10h-6h-38v-57h322v57l-44 -1q-39 0 -53 11q-13 10 -13 49v204l158 -1q84 0 100 -52q8 -26 13 -55t7 -60t7 -59t13 -53q16 -51 96 -51q63 0 92 33q29 32 29 104v74h-54zM245 380v226l189 -1q64 0 96 -27q31 -28 31 -84q0 -54 -32 -84t-85 -30h-4
h-195z" />
    <glyph glyph-name="S" unicode="S" horiz-adv-x="663" 
d="M507 614v-1q-5 4 -10 7.5t-10 7.5l-21 12q-39 22 -80 33q-41 9 -91 9q-108 0 -175 -59q-67 -58 -67 -157q0 -103 72 -134q72 -32 157 -44q4 -1 8 -1.5t9 -1.5t9 -1t8 -1q78 -11 136 -30t58 -83q0 -52 -43 -85q-44 -33 -112 -33q-41 0 -78 12q-40 11 -71 33q-42 29 -62 68
q-21 37 -27 101h-61v-266h54l25 70q4 -3 7 -6t7 -5q8 -8 12 -11q46 -37 97 -51t114 -14q108 0 176 61q68 62 68 156q0 101 -70 138t-155 51q-10 2 -20 3.5t-20 3.5q-11 1 -20.5 2t-19.5 3q-5 1 -9.5 1.5t-9.5 1.5t-10 1q-4 0 -9 1q-63 9 -92 30t-29 60q0 49 46 83
q45 33 112 33q97 0 150 -48q52 -48 69 -140h55v248h-54z" />
    <glyph glyph-name="T" unicode="T" horiz-adv-x="633" 
d="M67 414v-1q1 87 24 140q22 51 119 52h52v-490q0 -38 -12 -48q-11 -10 -48 -10h-6h-49v-57h342v57l-50 -1q-40 0 -53 11q-13 10 -13 49v489l56 -1q98 0 118 -54q10 -28 14.5 -61.5t5.5 -74.5h56v253h-613v-253h57z" />
    <glyph glyph-name="U" unicode="U" horiz-adv-x="776" 
d="M16 611l38 -1q40 0 54 -11q12 -12 12 -48v-336q0 -127 75 -179q74 -53 192 -53q113 0 190 52q78 51 78 175v340q0 37 13 49q12 10 53 12h38v56h-283v-56l44 -1q40 0 54 -11q12 -12 12 -48v-299q0 -94 -41 -144q-42 -50 -143 -50q-75 0 -122 37q-48 36 -48 115v340
q0 37 13 49q14 11 53 12h38v56h-320v-56z" />
    <glyph glyph-name="V" unicode="V" horiz-adv-x="719" 
d="M397 107l-186 453q-2 4 -2.5 7.5t-1.5 6.5q-2 6 -2 10q0 14 9 20q9 5 31 6h63v57h-322l1 -58q41 0 63 -5q19 -4 35 -31q2 -4 5 -9t5 -10t5 -11t6 -13l220 -530h99l217 552q1 2 2 5t2 5l2 4l2 4q11 24 22 31q12 7 32 9h28v57h-268v-57l58 -1q22 0 35 -8q11 -9 11 -26
q0 -9 -4 -24q-2 -8 -5.5 -17t-7.5 -19z" />
    <glyph glyph-name="W" unicode="W" horiz-adv-x="1061" 
d="M759 122l-158 427q-1 2 -1 3q0 2 -1 4t-1 3q0 2 -1 4q-1 5 -3 13q-1 4 -1 10q0 13 9 18q6 3 33 5h55v58h-325v-58l56 -1q35 0 48 -22q13 -24 21 -50q0 -1 1 -2v-2q1 -1 1 -2t1 -2q0 -4 1 -5l-143 -401l-152 427q-2 5 -3 9l-2 8q-2 10 -2 12q0 16 12 24q9 5 38 7h47v58
h-302l1 -59q39 0 59 -6q19 -7 34 -41q1 -2 2 -4.5t2 -4.5t2 -5t2 -5l192 -542h99l152 430l158 -430h98l183 522q4 11 7.5 20.5t7.5 17.5q6 15 12 24q10 16 19 20q5 2 10.5 3t13.5 2h33v58h-267v-58l59 -1q23 0 33 -7q9 -8 9 -24q0 -4 -0.5 -9t-1.5 -11q-2 -6 -4.5 -14.5
t-6.5 -19.5z" />
    <glyph glyph-name="X" unicode="X" horiz-adv-x="714" 
d="M411 359l160 178q7 8 12.5 14.5t10.5 11.5t9.5 10t9.5 10q18 15 40 21q19 5 63 7v56h-300v-58l61 -1q22 0 30 -4q8 -5 8 -17q0 -6 -6 -15q-3 -5 -8 -11t-12 -14l-118 -137l-117 143q-5 7 -9 12.5t-6 9.5t-3 7l-2 6v1v1q0 9 8 14q6 3 26 5h65v58h-338l1 -59q15 0 27 -0.5
t21 -1.5q17 -2 32 -12q9 -6 19 -16q9 -11 21 -24l182 -228l-153 -178q-8 -8 -14.5 -15.5t-11.5 -14.5q-11 -14 -22 -25q-17 -18 -41 -28q-22 -8 -58 -8h-8v-57h292v57l-59 -1q-19 0 -27 5q-9 4 -9 16v1q0 7 9 21q5 6 14.5 18.5t25.5 31.5l103 124l123 -153q2 -4 6 -8
q2 -2 4 -5t4 -5q1 -1 1 -2l1 -1t1 -2l1 -1q2 -4 4.5 -7t4.5 -6q4 -7 4 -11q0 -9 -7 -12q-6 -3 -20 -3h-7h-67v-57h332v57l-33 -1q-13 0 -23 2q-9 2 -16 7l-4 4l-4 4q-6 6 -9 10q-4 6 -7 9l-4.5 4.5t-4.5 6.5z" />
    <glyph glyph-name="Y" unicode="Y" horiz-adv-x="696" 
d="M385 343l-154 216q-3 5 -5 8.5t-4 5.5q-3 4 -4 8q-1 1 -1 4v3q0 12 9 17q4 2 11 3t17 2h64v57h-328l1 -58h24q11 0 19 -1q14 -1 29 -13q4 -2 7.5 -5.5l7.5 -7.5l8 -10t9 -11l214 -298v-148q0 -38 -13 -48q-11 -10 -48 -10h-6h-52v-57h347v57l-55 -1q-39 0 -52 11
q-13 10 -13 49v153l183 277q1 1 1 2t1 2l3 3q7 11 13.5 20.5t14.5 18.5q15 17 43 18h30v57h-267v-56l62 -1q18 0 28 -5q8 -6 8 -17q0 -6 -5 -18q-7 -14 -24 -38z" />
    <glyph glyph-name="Z" unicode="Z" horiz-adv-x="641" 
d="M607 667h-563v-258l59 -1q5 117 42 157q35 39 136 41h186l-437 -545v-61h581v289l-57 -1v-16q0 -7 -1 -15t-1.5 -16t-1.5 -16q-4 -61 -32 -113q-26 -51 -102 -51h-2h-246l439 545v61z" />
    <glyph glyph-name="bracketleft" unicode="[" horiz-adv-x="326" 
d="M192 610h114v57h-213v-870h213v57h-114v756z" />
    <glyph glyph-name="backslash" unicode="\" horiz-adv-x="330" 
d="M99 667h-85l279 -870h83z" />
    <glyph glyph-name="bracketright" unicode="]" horiz-adv-x="326" 
d="M133 -146h-113v-57h213v870h-213v-56h113v-757z" />
    <glyph glyph-name="asciicircum" unicode="^" horiz-adv-x="500" 
d="M120 351l130 240l130 -240h104l-169 318h-130l-169 -318h104z" />
    <glyph glyph-name="underscore" unicode="_" horiz-adv-x="500" 
d="M0 -58v-88h500v88h-500z" />
    <glyph glyph-name="grave" unicode="`" horiz-adv-x="500" 
d="M291 517h47l-63 147l-87 -1q-14 0 -19 -4q-7 -4 -7 -12q0 -2 1 -3v-4q2 -4 4 -6t4 -3.5t4 -3.5z" />
    <glyph glyph-name="a" unicode="a" horiz-adv-x="570" 
d="M511 197v-42q0 -63 -6 -82q-8 -20 -30 -20q-16 0 -23 13q-8 13 -8 38v238q0 45 -11 70q-12 24 -41 41q-24 14 -60 22q-34 7 -86 7q-88 0 -137 -33q-50 -33 -50 -89q0 -27 17 -46q16 -19 42 -19q29 0 46 16q17 17 17 42q0 20 -9 31q-11 11 -32 15q16 16 42 24q22 7 55 7
q55 0 84 -21q28 -22 28 -65q0 -34 -17 -48q-17 -16 -77 -26q-5 -1 -10 -1q-4 0 -9 -1t-10.5 -2t-10.5 -2q-101 -17 -139 -50q-40 -34 -40 -105q0 -58 39 -92q37 -34 102 -34q54 0 92 21t72 70q1 1 1.5 2t1.5 2t1 2t1 2q6 -47 32 -70q25 -24 69 -24q87 0 102 52q14 53 14 116
v41h-52zM346 252v-65q0 -59 -35 -97q-34 -37 -93 -37q-37 0 -56 19q-21 18 -21 49q0 27 7 41q7 13 33 27q14 7 38 15l54 18q5 2 10 3t9 3q10 4 15 5q1 1 2 1t3 1t3 1t2 1q7 3 14 7q3 2 6.5 4t8.5 4z" />
    <glyph glyph-name="b" unicode="b" horiz-adv-x="611" 
d="M190 78v-1q4 -5 7.5 -10t7.5 -10t7 -9.5t7 -8.5q30 -33 59 -44q31 -12 77 -12q92 0 151 72q59 71 59 185q0 107 -57 175q-58 67 -150 67q-54 0 -94 -24q-43 -25 -68 -70v278h-175v-53l21 -1q38 0 47 -10q9 -11 9 -52v-550h48zM330 412v-1q60 0 95 -47q35 -49 35 -131
q0 -83 -36 -131q-37 -49 -101 -49q-58 0 -94 49q-37 49 -37 126q0 83 38 133q37 49 100 51z" />
    <glyph glyph-name="c" unicode="c" horiz-adv-x="544" 
d="M446 192v-1q-11 -65 -48 -104q-38 -39 -91 -39q-74 0 -114 49q-41 49 -41 133q0 93 40 143q41 50 110 50h9t11 -1l12 -2t13 -2q11 -2 21 -5.5t20 -7.5q18 -9 18 -21q0 -4 -3 -5q-4 -2 -7 -2h-2q-2 0 -3 -1h-1h-2q-13 -1 -22 -15t-9 -32q0 -27 18 -45t46 -18q34 0 54 23
q19 22 19 59q0 59 -57 97q-56 37 -146 37q-115 0 -179 -69q-65 -70 -65 -191q0 -110 64 -174q65 -65 172 -65q100 0 154 57q53 56 67 152h-58z" />
    <glyph glyph-name="d" unicode="d" horiz-adv-x="625" 
d="M415 0h182v53l-29 -1q-36 0 -47 11q-10 10 -10 53v550h-194v-53l42 -1q38 0 47 -10q9 -11 9 -52v-152q-24 40 -63 63q-39 21 -89 21q-94 0 -156 -74q-61 -73 -61 -190q0 -99 59 -167t144 -68q56 0 96 23q38 23 70 79v-85zM283 412v-1q65 0 101 -46q35 -47 35 -131
q0 -81 -38 -131t-102 -50q-61 0 -94 45q-34 44 -34 127q0 85 36 136q36 49 96 51z" />
    <glyph glyph-name="e" unicode="e" horiz-adv-x="558" 
d="M515 229v-1v50q-1 8 -1.5 15.5t-2.5 14.5q-1 3 -1 6q0 4 -1 8t-2 7.5t-3 8.5q-16 64 -77 105q-60 39 -141 39q-109 0 -174 -68q-65 -70 -65 -188q0 -109 66 -176t175 -67q86 0 147 50q58 49 78 141l-64 -1q-14 -58 -52 -90q-41 -33 -95 -33q-82 0 -114 53q-33 54 -34 126
h361zM409 286l-255 -1q6 64 42 103q35 38 88 38q57 0 90 -36q34 -38 35 -104z" />
    <glyph glyph-name="f" unicode="f" horiz-adv-x="343" 
d="M213 467v97q0 38 13 54q12 16 39 16h7q4 0 6 -1q3 -1 11 -3q7 -2 14 -6q-16 -3 -25 -15t-9 -29q0 -23 15 -36q13 -15 37 -15q23 0 40 18q15 16 15 43q0 36 -32 62q-32 24 -80 24q-70 0 -109 -40q-40 -40 -40 -111v-58h-95v-56h95v-296q0 -42 -9 -52t-42 -10h-6h-36v-53
h303v53l-56 -1q-37 0 -46 11q-10 10 -10 53v295h114v56h-114z" />
    <glyph glyph-name="g" unicode="g" horiz-adv-x="598" 
d="M146 158v-1q25 -12 56 -18q30 -6 62 -6q93 0 149 49q57 48 57 125q0 12 -1.5 23.5t-3.5 22.5q-3 11 -7.5 20.5t-9.5 19.5q16 22 33 33t35 11h8l2 -2v-1l-3 -3q-10 -7 -15 -17t-5 -21q0 -21 14 -37q13 -16 34 -16q24 0 39 19q15 18 15 48q0 34 -22 55q-23 20 -58 20
q-29 0 -54 -15q-26 -14 -46 -44q-32 31 -71 45q-42 14 -91 14q-94 0 -152 -50q-57 -51 -57 -137q0 -38 15 -66q16 -31 46 -53q-42 -16 -61 -40q-19 -23 -19 -62q0 -28 15 -49q14 -20 44 -34q-40 -14 -56 -33q-18 -20 -18 -50q0 -5 1 -7v-8q1 -9 6 -18q2 -5 4 -9l4 -8
q25 -35 82 -50t166 -15q10 0 19.5 0.5t20.5 1.5t21 1.5t21 2.5q68 11 125 45q56 35 56 114q0 59 -34 84q-34 23 -117 25l-172 -1q-62 0 -87 11q-25 10 -25 36q0 13 8 24q7 10 27 21zM132 -19q7 -1 13 -1h12q5 -1 11 -1h11h33q8 -1 19 -1h26l116 -2q42 0 61 -13t19 -39
q0 -40 -41 -60q-41 -19 -133 -19q-94 0 -136 19q-44 18 -44 57q0 20 8 34q7 13 25 26zM258 433v-1q52 0 81 -33q28 -32 28 -93q0 -58 -28 -92q-29 -35 -78 -35q-47 0 -74 34q-28 34 -28 92t27 93q26 33 72 35z" />
    <glyph glyph-name="h" unicode="h" horiz-adv-x="665" 
d="M222 667h-191v-54l36 -1q38 0 48 -10q9 -11 9 -51v-436q0 -42 -9 -52t-42 -10h-6h-36v-53h280v53l-33 -1q-37 0 -46 11q-10 10 -10 53v185q0 50 35 82t90 32q47 0 74 -24q27 -26 27 -67v-209q0 -42 -9 -52q-7 -10 -41 -10h-6h-30v-53h277v53l-36 -1q-36 0 -47 11
q-10 10 -10 53v226q0 66 -43 103q-44 38 -116 38q-55 0 -97 -21q-43 -22 -68 -61v266z" />
    <glyph glyph-name="i" unicode="i" horiz-adv-x="346" 
d="M227 467h-197v-54l42 -1q38 0 48 -10q9 -11 9 -51v-236q0 -42 -9 -52t-42 -10h-6h-42v-53h289v53l-36 -1q-37 0 -46 11q-10 10 -10 53v351zM175 669v-1q-26 0 -45 -18q-19 -19 -19 -46q0 -26 19 -45t45 -19q27 0 46 19t19 45q0 27 -19 46q-19 17 -46 19z" />
    <glyph glyph-name="j" unicode="j" horiz-adv-x="309" 
d="M229 466h-201v-53l46 -1q38 0 48 -10q9 -11 9 -52v-397q0 -70 -13 -92q-14 -24 -54 -24q-13 0 -20 4q-9 3 -17 11q-1 1 -1 2l-1 1l-2 2q27 0 44 13q18 13 18 41q0 26 -16 42q-17 15 -43 15q-28 0 -46 -21q-19 -22 -19 -54q0 -40 32 -69t80 -29q88 0 121 61q32 63 35 133
v9v10v458zM164 669v-1q-27 0 -46 -19t-19 -45q0 -27 19 -46t46 -19t46 19t19 46q0 26 -19 45q-18 18 -46 20z" />
    <glyph glyph-name="k" unicode="k" horiz-adv-x="637" 
d="M222 667h-191v-54l36 -1q38 0 48 -10q9 -11 9 -51v-436q0 -42 -9 -52t-42 -10h-6h-36v-53h277v53l-30 -1q-37 0 -46 11q-10 10 -10 53v38l100 81l105 -144q3 -4 7 -10l3 -9v-2v-2q0 -8 -6 -12q-6 -3 -15 -3h-5h-55v-53h282v53l-32 -1q-10 0 -17 3q-9 1 -17 8q-6 4 -12 12
q-4 4 -7 8.5t-7 9.5l-147 202l117 91q4 2 7 4.5t6 4.5q6 4 12 6q5 2 10.5 4t10.5 3q10 1 24 3h39v56h-303v-56l69 -1q11 0 19 -3q6 -5 6 -10q0 -9 -11 -22q-5 -7 -15.5 -16t-24.5 -20l-143 -116v444z" />
    <glyph glyph-name="l" unicode="l" horiz-adv-x="340" 
d="M221 667h-191v-54l36 -1q38 0 48 -10q9 -11 9 -51v-436q0 -42 -9 -52t-42 -10h-6h-36v-53h283v53l-36 -1q-37 0 -46 11q-10 10 -10 53v551z" />
    <glyph glyph-name="m" unicode="m" horiz-adv-x="957" 
d="M219 467h-189v-54l36 -1q38 0 48 -10q9 -11 9 -51v-236q0 -42 -9 -52t-42 -10h-6h-36v-53h277v53l-30 -1q-37 0 -46 11q-10 10 -10 53v152q0 69 31 106t89 37q52 0 74 -25t22 -84v-187q0 -42 -9 -52q-7 -10 -41 -10h-6h-30v-53h270v53l-29 -1q-36 0 -47 11q-10 10 -10 53
v162q0 60 32 97q31 36 85 36q51 0 73 -25q21 -26 21 -84v-187q0 -42 -9 -52t-42 -10h-6h-25v-53h266v53l-29 -1q-36 0 -47 11q-10 10 -10 53v196q0 81 -33 126q-35 44 -122 44q-53 0 -94 -23q-41 -24 -68 -71q-18 49 -54 71q-38 23 -96 23q-54 0 -91 -22
q-19 -11 -36.5 -28.5t-33.5 -42.5z" />
    <glyph glyph-name="n" unicode="n" horiz-adv-x="661" 
d="M221 467h-191v-54l36 -1q38 0 48 -10q9 -11 9 -51v-236q0 -42 -9 -52t-42 -10h-6h-36v-53h277v53l-30 -1q-37 0 -46 11q-10 10 -10 53v180q0 53 37 86q38 32 96 32q48 0 71 -26t23 -80v-193q0 -42 -9 -52t-42 -10h-6h-29v-53h273v53l-30 -1q-37 0 -46 11q-10 10 -10 53
v212q0 75 -43 115q-44 39 -118 39q-42 0 -71 -10q-30 -10 -59 -36l-10 -10l-10 -10q-5 -6 -10.5 -12t-10.5 -13z" />
    <glyph glyph-name="o" unicode="o" horiz-adv-x="598" 
d="M299 483v-1q-117 0 -184 -69q-69 -69 -69 -187q0 -113 73 -177q72 -66 181 -66q115 0 183 69q68 68 68 184q0 109 -70 178q-70 67 -182 69zM297 424v-1q69 0 107 -51q37 -50 37 -148q0 -87 -37 -134q-37 -49 -102 -49q-72 0 -109 48q-37 46 -37 140q0 89 38 142
q37 51 103 53z" />
    <glyph glyph-name="p" unicode="p" horiz-adv-x="628" 
d="M217 467h-191v-53l36 -1q37 0 48 -11q9 -11 9 -51v-438q0 -42 -9 -52q-11 -11 -48 -11h-36v-53h293v53h-46q-37 0 -46 11q-10 10 -10 52v158q1 -2 5 -6q1 -2 2 -3.5t2 -3.5q31 -41 66 -57q36 -17 83 -17q89 0 148 74q58 73 58 188q0 106 -55 171q-56 66 -145 66
q-34 0 -58 -6t-47 -23q-8 -5 -15 -12.5t-15 -15.5t-16.5 -18t-17.5 -21zM345 412v-1q63 0 97 -43q33 -44 33 -126q0 -92 -34 -139q-34 -49 -100 -49q-57 0 -93 50q-36 49 -36 126q0 79 38 131q38 50 95 51z" />
    <glyph glyph-name="q" unicode="q" horiz-adv-x="621" 
d="M417 390v-1q-5 8 -10.5 14.5t-10.5 13.5q-5 6 -10 11.5t-10 10.5q-24 23 -53 34q-27 10 -66 10q-89 0 -149 -75q-61 -76 -61 -187q0 -104 57 -170q55 -67 144 -67q60 0 101 21q39 20 68 71v-163q0 -42 -9 -52q-11 -11 -48 -11h-42v-53h277v53h-26q-36 0 -47 11
q-10 10 -10 52v437q0 42 10 52q11 11 47 12h26v53h-178v-77zM282 412v-1q68 0 100 -47q31 -47 37 -106q0 -10 1 -15v-15q0 -77 -37 -123q-38 -47 -99 -47q-60 0 -96 45q-36 43 -36 119q0 89 35 139t95 51z" />
    <glyph glyph-name="r" unicode="r" horiz-adv-x="449" 
d="M219 467h-190v-54l42 -1q38 0 48 -10q9 -11 9 -51v-236q0 -42 -9 -52t-42 -10h-6h-42v-53h309v53l-56 -1q-37 0 -46 11q-10 10 -10 53v159q11 42 24 67q14 27 33 47l5 5t6 5q8 6 11 9q6 4 12 7.5t11 5.5q9 4 18 4q8 0 10 -1q2 -2 2 -5t-1 -4l-4 -4h-1l-2 -2
q-6 -5 -11 -15q-4 -8 -4 -20q0 -23 16 -39t40 -16q29 0 47 22q17 22 17 55q0 36 -25 58q-26 23 -63 23q-19 0 -37 -5q-17 -5 -34 -17q-19 -13 -38 -35q-20 -23 -42 -54z" />
    <glyph glyph-name="s" unicode="s" horiz-adv-x="506" 
d="M376 425v-1q-29 29 -66 44q-40 14 -87 14h-6h-8q-64 -3 -116 -34q-53 -32 -53 -107q0 -72 52 -100q26 -14 54 -24t60 -17q5 -1 9.5 -2t9.5 -2t9.5 -2t9.5 -2q49 -10 89 -26q38 -15 38 -52q0 -31 -28 -50t-76 -19q-9 0 -14 1q-9 0 -14 1q-29 5 -56 18q-29 14 -44 31
q-4 4 -5 6l-6 6q-7 9 -11 18q-5 10 -9 22q-1 3 -2 6.5t-2 7.5q-2 4 -3 8t-2 9h-55v-187h49l15 55q35 -32 76 -48t92 -16q91 0 141 41q49 40 49 114q0 70 -52 98q-26 14 -54.5 25t-60.5 19q-7 2 -13 3t-13 3q-7 1 -13.5 2t-13.5 3q-23 5 -43 10t-37 12q-34 13 -34 42
q0 28 28 46q27 18 70 18q62 0 103 -30q40 -30 58 -87h51v172h-51z" />
    <glyph glyph-name="t" unicode="t" horiz-adv-x="363" 
d="M194 466v162l-62 -1v-10q0 -7 -1 -10q-5 -54 -34 -97q-29 -44 -88 -44h-2v-56h87v-314q0 -56 29 -85q28 -28 85 -28q71 0 100 36q28 34 28 127v47h-55v-48q0 -53 -10 -72q-11 -20 -37 -20q-20 0 -30 13t-10 40v304h135v56h-135z" />
    <glyph glyph-name="u" unicode="u" horiz-adv-x="652" 
d="M441 0h184v53l-30 -1q-37 0 -46 11q-10 10 -10 53v351h-191v-53l36 -1q38 0 48 -10q9 -11 9 -51v-177q0 -51 -35 -88q-36 -36 -89 -36q-55 0 -77 25q-23 26 -23 86v305h-191v-53l36 -1q38 0 48 -10q9 -11 9 -51v-205q0 -84 33 -124t124 -40q57 0 98 23q38 22 67 72v-78z
" />
    <glyph glyph-name="v" unicode="v" horiz-adv-x="542" 
d="M296 87l-115 282q-1 1 -1 5q-1 1 -1 5q-1 3 -1 7q-1 2 -1 6q0 10 9 15q7 3 28 5h47v55h-274l1 -56q40 0 58 -7t35 -45l2 -2v-2l145 -355h97l155 370q8 20 20 32q9 9 27 11h29v54h-222v-54l42 -1q22 0 30 -5q8 -6 8 -20v-5q-1 -3 -3 -7v-3l-1 -1z" />
    <glyph glyph-name="w" unicode="w" horiz-adv-x="798" 
d="M572 101l-95 278v2l-2 2v2q-1 1 -1 2q-1 1 -1 2v2q0 10 7 14q4 3 21 5h52v57h-266v-57l55 -1q14 0 19 -4q6 -5 6 -12v-6q-2 -4 -3 -7l-105 -285l-90 276q-1 2 -1 5t-1 6t-1 9q0 10 7 14q4 3 18 5h52v57h-256l1 -56q39 0 59 -12q18 -11 32 -53l112 -346h96l113 301
l101 -301h103l123 350q1 2 2 5t2 5l3 9q7 21 22 33q13 8 55 10v55h-214v-58q20 0 34 -0.5t21 -1.5q14 -3 14 -15v-6q-1 -2 -1 -4t-1 -4v-3q-1 -1 -1 -2l-1 -1z" />
    <glyph glyph-name="x" unicode="x" horiz-adv-x="578" 
d="M345 249l131 118q10 9 17.5 15.5t14.5 11.5q11 8 24 13l12 3q3 1 6 1t7 1h26l-2 55h-248v-57l46 -1q12 0 20 -2q5 -3 5 -11q0 -4 -3 -10q-6 -8 -10 -11l-88 -81l-78 80l-2 2l-2 2q-3 2 -7 8q-3 4 -3 9q0 8 7 11q5 2 22 4h46v57h-291l1 -56h21q10 0 18 -1q14 -1 28 -9
q4 -2 8 -5.5t9 -7.5q9 -8 20 -20l134 -141l-150 -142q-5 -5 -10 -9t-9 -7q-7 -6 -17 -10q-12 -5 -25 -6q-7 -1 -16 0h-18v-53h258v53l-46 -1q-21 0 -28 4q-8 3 -8 11v2v1q1 4 6 12q2 3 7 8l12 12l84 82l86 -93l2 -2q1 -1 2 -1q2 -2 4 -4.5t4 -4.5q4 -4 4 -11t-5 -12
q-5 -3 -15 -3h-5h-58v-53h294v53l-30 -1q-15 0 -25 6q-9 5 -19 15l-6 6q-4 4 -6 7z" />
    <glyph glyph-name="y" unicode="y" horiz-adv-x="548" 
d="M300 97l-111 259q-1 1 -1 4q-1 1 -1 2t-1 2q-4 9 -6 17q-2 10 -2 12q0 10 9 15q7 3 30 5h43v54h-271l1 -56q38 0 56 -7t35 -43q0 -1 1 -2q0 -2 1 -2l163 -384q-29 -71 -58 -99q-31 -29 -74 -29q-17 0 -27 3q-11 3 -21 12q-1 1 -1.5 2t-1.5 2t-2 1.5t-2 1.5q32 0 49 15
q16 13 16 43q0 26 -17 45q-19 17 -46 17q-33 0 -53 -23t-20 -60q0 -51 33 -79q34 -29 89 -29q84 0 123 43q20 22 37 49t31 61q4 6 5 9q1 2 2 5t2 5l163 374q5 11 8.5 20t7.5 16q5 11 12 20q8 10 15 11l21 3h25v55h-226v-54l46 -1q19 0 27 -5q7 -6 7 -20v-1v-1q0 -4 -2 -12
q-1 -5 -6 -16z" />
    <glyph glyph-name="z" unicode="z" horiz-adv-x="486" 
d="M472 467h-433v-201l56 -1q2 30 7 55.5t13 46.5q15 42 85 43h143l-330 -353v-57h459v227l-55 -1q-2 -76 -23 -122q-23 -47 -107 -47h-4h-141l330 356v54z" />
    <glyph glyph-name="braceleft" unicode="{" horiz-adv-x="500" 
d="M227 235v-1l2 2h1q34 21 46 46q11 27 11 74v151q0 49 17 64q16 14 70 16h11v85h-12q-8 0 -12 1h-12h-12q-79 0 -113 -33q-35 -33 -35 -106v-173q0 -37 -13 -56q-12 -18 -43 -26v-82q30 -7 44 -27q12 -21 12 -62v-165q0 -95 45 -120q44 -26 125 -26l26 1v86q-3 -1 -7 -1
h-5q-53 0 -69 16q-17 15 -17 65v148q0 49 -13 75q-14 28 -47 48z" />
    <glyph glyph-name="bar" unicode="|" horiz-adv-x="500" 
d="M201 666v-833h98v833h-98z" />
    <glyph glyph-name="braceright" unicode="}" horiz-adv-x="500" 
d="M273 235v-1q-33 -19 -47 -47t-14 -74v-149q0 -50 -16 -65q-16 -16 -69 -16h-5q-4 0 -7 1v-86h12q4 -1 13 -1h12h12q79 0 113 34t34 112v164q0 43 13 63q13 21 43 28v80q-29 7 -43 27q-13 19 -13 57v171q0 74 -34 107q-35 33 -114 33h-12h-12q-4 -1 -12 -1t-12 1v-87
q49 0 74 -11q23 -12 23 -67v-153q0 -48 12 -73t46 -46h1q1 -1 2 -1z" />
    <glyph glyph-name="asciitilde" unicode="~" horiz-adv-x="667" 
d="M148 572v-1q2 5 5 9.5t6 9.5q2 4 5 7.5t5 7.5q14 19 28 26q13 7 32 7q23 0 47 -8q11 -5 23 -9.5t23 -9.5q1 -1 2 -1q1 -1 2 -1q11 -5 23 -10l24 -10q24 -9 50 -9q59 0 95 37q35 38 57 86l-57 32q-4 -5 -7 -10l-6 -10t-6 -8.5t-6 -7.5q-14 -14 -26 -18q-14 -6 -30 -6
q-17 0 -37 5q-9 2 -18 5.5t-18 7.5q-5 1 -13 5q-5 2 -13 6q-13 5 -25 10t-25 10q-26 9 -53 9q-58 0 -89 -39q-16 -20 -29.5 -41.5t-24.5 -44.5z" />
    <glyph glyph-name="Ugrave" unicode="&#x201a;" horiz-adv-x="278" 
 />
    <glyph glyph-name="quotedblright" unicode="&#x192;" 
d="M221 374l-69 -395q-8 -38 -22 -54q-17 -17 -44 -17h-5q-4 0 -6 1q-3 1 -11 3q-3 1 -6.5 3t-7.5 4q19 3 32 19q12 15 12 35q0 18 -12 29q-13 11 -32 11q-27 0 -46 -21q-20 -22 -20 -49q0 -35 26 -55q25 -21 71 -21q71 0 117 40q45 40 59 112l62 355h114l9 50h-114l35 197
q8 39 23 54q15 16 43 16h6q4 0 6 -1q3 -1 11 -3l12 -6q-19 -4 -31 -19t-12 -35t13 -30q13 -11 31 -11q28 0 47 22q20 22 20 49q0 35 -26 56q-28 20 -72 20q-70 0 -116 -40q-47 -41 -60 -111l-28 -158h-94l-9 -50h94z" />
    <glyph glyph-name="dotlessi" unicode="&#x201e;" horiz-adv-x="483" 
d="M72 -135q54 13 95 47q40 33 40 95q0 48 -22 76t-57 28q-31 0 -50 -19t-19 -50q0 -25 16 -41t40 -16q5 0 8.5 0.5t7.5 1.5q8 2 13 4q3 3 5 4t6 5q-2 -37 -23 -60q-22 -25 -60 -31v-44zM288 -135q7 2 12.5 3t10.5 3t8.5 3t7.5 2l6 2t5 2l4 2l4 2q4 2 5 3t5 3q30 18 50 51
q18 31 18 66q0 48 -22 76t-58 28q-30 0 -49 -19t-19 -50q0 -25 16 -41t40 -16q5 0 8.5 0.5t7.5 1.5q8 2 13 4q3 3 5 4t6 5q-2 -36 -24 -60q-22 -25 -60 -31v-44z" />
    <glyph glyph-name="fraction" unicode="&#x2026;" horiz-adv-x="800" 
d="M133 114v-1q-28 0 -47 -19t-19 -47q0 -27 19 -46t47 -19t47 19q19 18 19 46t-19 47q-19 18 -47 20zM400 114v-1q-28 0 -47 -19t-19 -47q0 -27 19 -46t47 -19t47 19q19 18 19 46t-19 47q-18 18 -47 20zM667 114v-1q-28 0 -47 -19t-19 -47q0 -27 19 -46t47 -19t47 19
q19 18 19 46t-19 47q-18 18 -47 20z" />
    <glyph glyph-name="dagger" unicode="&#x2020;" 
d="M261 410v-1q0 -55 -2.5 -109t-7.5 -109t-11 -108.5t-14 -107.5q-2 -10 -2.5 -19t-1.5 -17t-1.5 -15.5t-0.5 -12.5q0 -39 17 -62t47 -23t47 23t17 62q0 15 -1.5 31.5t-3.5 35.5q-2 18 -5 36.5t-5 37.5q-1 3 -1 7q-1 2 -1 7q-2 14 -4 27t-4 27t-3 26.5t-2 25.5q-1 4 -1 8v9
q-1 4 -1 8v9l-6 102q-3 49 -3 101q5 -1 10.5 -3t12.5 -4q6 -2 12 -5t13 -5q1 -1 2 -1q1 -1 2 -1q10 -4 19 -7.5t17 -6.5q15 -7 23 -7q29 0 47 19q18 18 18 47q0 28 -17 48q-17 18 -45 18q-11 0 -27 -6q-8 -4 -16.5 -7t-16.5 -7q-4 -2 -7 -3l-6 -2q-5 -2 -13 -6q-4 -1 -7 -2
t-7 -2q-6 -2 -14 -4q0 25 6 46q3 10 6 19.5t7 19.5q2 4 3 7q1 2 1 3q0 2 1 4q3 8 5.5 15.5t4.5 15.5q4 13 4 33q0 27 -16 42q-17 15 -45 15q-29 0 -45 -15q-17 -15 -17 -42q0 -16 5 -34q2 -8 4.5 -16.5t5.5 -16.5q1 -2 1 -3t1 -3q2 -4 3 -7q4 -10 7 -19.5t6 -19.5
q6 -21 6 -44q-2 1 -3 1t-3 1h-6q-5 1 -8.5 2t-6.5 2q-4 1 -7 2l-6 2l-4 2l-4 2t-4.5 2t-4.5 2l-2 2q-1 0 -2 1l-12 6t-13 6q-14 6 -28 6q-29 0 -45 -18q-17 -20 -17 -48q0 -29 19 -47q18 -19 46 -19q9 0 24 7q8 3 16.5 6.5t18.5 7.5q2 0 3 1t2 1q7 2 13 5t12 5t11.5 4
t10.5 4z" />
    <glyph glyph-name="Uacute" unicode="&#x2021;" 
d="M261 410v-1v-5q0 -4 1 -6v-5v-6q0 -9 -1 -14q-1 -4 -1 -8q0 -3 -1 -7q-2 -7 -4 -13.5t-4 -13.5t-5 -13.5t-5 -11.5q-4 -10 -7.5 -18t-6.5 -15q-7 -13 -7 -19q0 -7 7 -20q3 -7 6.5 -15t7.5 -17q7 -15 15 -38q6 -21 6 -44v-5v-6q-1 -1 -1 -5v-6q-5 2 -10.5 4t-10.5 4l-24 9
q-1 0 -2 1q-1 0 -2 1q-9 4 -17.5 7.5t-16.5 7.5q-17 6 -28 6q-28 0 -46 -18q-19 -19 -19 -48q0 -28 17 -47q16 -19 45 -19q11 0 26 7q8 3 16.5 6.5t18.5 7.5q5 2 10 5q2 1 5 2t5 2q5 2 9 3t8 3l8 2l8 2q0 -24 -6 -43l-6 -20t-7 -20l-3 -6q-1 -3 -3 -7q-2 -8 -4.5 -16
t-4.5 -16q-5 -18 -5 -34q0 -28 17 -43q16 -15 45 -15q28 0 45 15q16 15 16 43q0 16 -3 30q-2 7 -4.5 14t-4.5 14q-1 2 -1.5 5t-1.5 5t-2 4.5t-2 4.5q-4 10 -7 19.5t-6 20.5q-6 19 -6 45l12 -4l12 -4t12 -5t13 -6q1 -1 2 -1t2 -1t2 -1t2 -1q13 -7 29 -12q15 -5 28 -5
q29 0 45 19q17 19 17 47t-18 48q-18 18 -47 18q-10 0 -26 -6q-17 -8 -36 -15q-7 -3 -13 -6t-13 -5t-12.5 -4t-10.5 -4q-1 4 -1 12v10q0 23 7 43q3 11 6.5 20.5t7.5 18.5q8 20 15 32q6 13 6 20q0 4 -1 7t-5 9q-20 34 -27 63q-9 28 -9 54v6v5q0 4 1 6v5q5 -1 10.5 -3t12.5 -4
q6 -2 12 -5t13 -5q1 -1 2 -1q1 -1 2 -1q10 -4 19 -7.5t17 -6.5q15 -7 23 -7q29 0 47 19q18 18 18 47q0 28 -17 48q-17 18 -45 18q-11 0 -27 -6q-8 -4 -16.5 -7t-16.5 -7q-4 -2 -7 -3l-6 -2q-5 -2 -13 -6q-4 -1 -7 -2t-7 -2q-6 -2 -14 -4q0 25 6 46q3 10 6 19.5t7 19.5
q2 4 3 7q1 2 1 3q0 2 1 4q3 8 5.5 15.5t4.5 15.5q4 13 4 33q0 27 -16 42q-17 15 -45 15q-29 0 -45 -15q-17 -15 -17 -42q0 -16 5 -34q2 -8 4.5 -16.5t5.5 -16.5q1 -2 1 -3t1 -3q2 -4 3 -7q4 -10 7 -19.5t6 -19.5q6 -21 6 -44q-2 1 -3 1t-3 1h-6q-5 1 -8.5 2t-6.5 2
q-4 1 -7 2l-6 2l-4 2l-4 2t-4.5 2t-4.5 2l-2 2q-1 0 -2 1l-12 6t-13 6q-14 6 -28 6q-29 0 -45 -18q-17 -20 -17 -48q0 -29 19 -47q18 -19 46 -19q9 0 24 7q8 3 16.5 6.5t18.5 7.5q2 0 3 1t2 1q7 2 13 5t12 5t11.5 4t10.5 4z" />
    <glyph glyph-name="arrowright" unicode="&#x2c6;" horiz-adv-x="500" 
d="M377 650v-1q-2 -21 -10 -31q-9 -11 -26 -11q-22 0 -44 6q-20 4 -44 12q-11 3 -21.5 6t-21.5 6q-25 5 -45 5q-43 0 -67 -32q-24 -30 -26 -87l54 -1q2 26 8 35q7 10 24 10h11t11 -1t10.5 -2t10.5 -3t11 -3t11 -3t11 -3.5t11 -3.5q11 -4 22 -7l22 -6q22 -6 44 -6q41 0 68 34
t27 87h-51z" />
    <glyph glyph-name="circumflex" unicode="&#x2030;" horiz-adv-x="1059" 
d="M549 335v-1q-59 0 -90 -45q-33 -47 -33 -128q0 -83 33 -126q31 -45 90 -45q61 0 88 43q28 45 32 95q1 5 1 9t1 9v17q0 79 -33 126q-33 44 -89 46zM549 295v-1q32 0 46 -32q13 -30 13 -106q0 -68 -13 -97q-13 -31 -46 -31q-31 0 -44 34q-13 32 -13 114q0 64 13 91t44 28z
M890 335v-1q-59 0 -90 -45q-33 -47 -33 -127q0 -82 33 -127q31 -45 90 -45t91 44t32 126q0 81 -33 128q-32 45 -90 47zM890 295v-1q32 0 46 -32q13 -30 13 -106q0 -66 -14 -97q-13 -31 -45 -31q-31 0 -44 34q-14 34 -14 114q0 61 14 91q13 27 44 28zM541 661l-398 -661h55
l403 661h-60zM169 677v-1q-59 0 -90 -46q-33 -47 -33 -127q0 -82 33 -127q31 -46 90 -46q60 0 87 44t33 95q1 5 1 9t1 9v17q0 79 -33 126q-32 45 -89 47zM169 636v-1q32 0 45 -31q13 -30 13 -106q0 -69 -13 -98q-14 -30 -45 -30t-44 33q-13 32 -13 114q0 65 13 91
q13 27 44 28z" />
    <glyph glyph-name="Igrave" unicode="&#x2039;" horiz-adv-x="239" 
d="M133 439v-1q-4 -5 -8 -11.5t-9 -14.5t-11 -16.5t-11 -17.5q-3 -4 -7 -12q-3 -4 -7 -12q-15 -24 -23 -44q-10 -21 -10 -37q0 -15 25 -61q12 -23 27 -48.5t34 -52.5l58 -1l-9 21q-2 5 -5 11t-5 12q-2 5 -4 10.5t-4 10.5t-4 11t-4 11q-4 10 -6.5 20t-4.5 20q-5 22 -5 36
q0 20 14 64q7 21 16 46.5t22 55.5h-59z" />
    <glyph glyph-name="fi" unicode="&#x152;" horiz-adv-x="1143" 
d="M641 606l215 -1q98 0 127 -51q28 -52 28 -134h59v246l-486 -1q-12 0 -24 0.5t-24 1.5q-13 1 -25 2t-24 3t-24 3l-24 2q-13 1 -25 1.5t-24 0.5q-152 0 -246 -99q-94 -98 -94 -259q0 -157 90 -247q90 -91 245 -91q12 0 24 0.5t24 1.5l24 2t24 3q2 1 4 1t4 1h9q10 1 19.5 2
t19.5 3l39 3h504v280l-60 -1q-5 -99 -31 -156q-28 -59 -141 -61l-207 -3v255l95 -1q62 0 73 -30q10 -30 10 -86v-15h61v320h-61v-16q0 -64 -17 -90q-17 -24 -60 -24h-4h-97v234zM533 175v-1q0 -42 -3 -58q-3 -18 -13 -29q-1 -1 -1.5 -2t-1.5 -2l-4 -4q-20 -17 -48 -26
q-30 -9 -71 -9q-100 0 -160 77q-60 76 -60 204q0 134 62 214q61 78 167 78q70 0 101 -22q32 -23 32 -71v-349z" />
    <glyph glyph-name="Acircumflex" unicode="&#x2018;" horiz-adv-x="266" 
d="M194 690v-1q-52 -13 -94 -47q-41 -35 -41 -97q0 -46 22 -74q23 -29 57 -29q30 0 49 19t19 49q0 27 -16 43t-40 16q-11 0 -16 -1q-7 -1 -13 -6q-1 -1 -5 -3q-2 -1 -6 -5q1 35 25 60q23 25 59 32v44z" />
    <glyph glyph-name="Ecircumflex" unicode="&#x2019;" horiz-adv-x="267" 
d="M73 437v-1q54 15 95 48q40 33 40 96q0 47 -22 75t-57 28q-31 0 -50 -19t-19 -50q0 -25 16 -41q17 -17 40 -17q5 0 8.5 0.5t7.5 1.5q8 2 13 4q3 3 5 4t6 5q-2 -37 -23 -60q-23 -26 -60 -30v-44z" />
    <glyph glyph-name="quotedblbase" unicode="&#x201c;" horiz-adv-x="482" 
d="M194 690v-1q-52 -13 -94 -47q-41 -35 -41 -97q0 -46 22 -74q23 -29 57 -29q30 0 49 19t19 49q0 27 -16 43t-40 16q-11 0 -16 -1q-7 -1 -13 -6q-1 -1 -5 -3q-2 -1 -6 -5q1 35 25 60q23 25 59 32v44zM410 690v-1q-53 -13 -94 -48q-40 -34 -40 -96q0 -46 22 -74
q21 -29 57 -29q30 0 49 19t19 49q0 27 -16 43t-40 16q-11 0 -16 -1q-7 -1 -13 -6q-1 -1 -5 -3q-2 -1 -6 -5q1 36 24 60q23 25 59 32v44z" />
    <glyph glyph-name="perthousand" unicode="&#x201d;" horiz-adv-x="483" 
d="M72 437v-1q54 15 95 48q40 33 40 96q0 47 -22 75t-57 28q-31 0 -50 -19t-19 -50q0 -25 16 -41q17 -17 40 -17q5 0 8.5 0.5t7.5 1.5q8 2 13 4q3 3 5 4t6 5q-2 -37 -23 -60q-23 -26 -60 -30v-44zM288 437v-1q7 2 12.5 3t10.5 3t8.5 3t7.5 2l6 2t5 2l4 2l4 2q4 2 5 3t5 3
q16 10 28 23t22 29q18 31 18 67q0 47 -22 75t-58 28q-30 0 -49 -19t-19 -50q0 -25 16 -41q17 -17 40 -17q5 0 8.5 0.5t7.5 1.5q8 2 13 4q3 3 5 4t6 5q-2 -36 -24 -60q-23 -26 -60 -30v-44z" />
    <glyph glyph-name="periodcentered" unicode="&#x2014;" horiz-adv-x="721" 
d="M10 319v-90h701v90h-701z" />
    <glyph glyph-name="onehalf" unicode="&#x2dc;" horiz-adv-x="500" 
d="M243 607l72 -84h88l-101 145h-96l-109 -145h65z" />
    <glyph glyph-name="trademark" unicode="&#x2122;" horiz-adv-x="993" 
d="M45 519v-1q0 47 12 77q10 29 73 31h28v-272q0 -20 -7 -24q-7 -5 -24 -5h-6h-34v-38h217v38l-34 -1q-24 0 -30 6q-7 4 -7 25v270q67 0 89 -19q23 -20 23 -87h42v148h-384v-148h42zM693 394l-118 273h-168v-38l26 -1q23 0 31 -5q7 -6 7 -24v-245q0 -20 -7 -24q-7 -5 -25 -5
h-6h-26v-38h177v38l-27 -1q-24 0 -30 6q-7 4 -7 25v251l143 -319h36l140 319v-252q0 -20 -6 -24q-7 -5 -25 -5h-6h-27v-38h201v38l-26 -1q-24 0 -31 6q-7 4 -7 25v243q0 19 7 25q8 5 31 6h26v38h-165z" />
    <glyph glyph-name="Oacute" unicode="&#x203a;" horiz-adv-x="239" 
d="M106 111v-1q4 5 8 11.5t9 14.5t10.5 16t10.5 16l4 6t4 7t4 7t4 7q7 11 12.5 21.5t10.5 21.5q9 21 9 37q0 14 -24 61q-13 23 -28 49t-34 54l-57 -1q2 -5 4.5 -11t5.5 -13q2 -7 5 -13.5t6 -13.5q2 -5 3.5 -9t3.5 -9q3 -12 7 -19q7 -20 12 -39q4 -17 4 -36q0 -22 -13 -64
q-7 -22 -17 -46.5t-23 -53.5h59z" />
    <glyph glyph-name="fl" unicode="&#x153;" horiz-adv-x="934" 
d="M890 230v-1q1 5 1 8v7v10v1v1q0 106 -62 166q-62 59 -172 59q-58 0 -102 -19q-43 -19 -73 -58q-34 43 -86 61q-53 17 -105 17q-112 0 -178 -70q-67 -70 -67 -189q0 -106 69 -173q68 -67 178 -67q56 0 104 20t84 62q28 -40 75 -61q45 -21 100 -21q94 0 153 50
q57 49 78 140l-65 -1q-16 -61 -53 -92t-97 -31q-75 0 -111 57q-36 55 -36 124h365zM292 426v-1q83 0 115 -57q30 -59 30 -130q0 -95 -37 -145q-37 -52 -107 -52q-66 0 -104 50t-38 134q0 89 39 145q38 54 102 56zM784 286l-256 -1q6 66 42 103q35 38 89 38q62 0 94 -42
q31 -41 31 -98z" />
    <glyph glyph-name="Iacute" unicode="&#x178;" horiz-adv-x="696" 
d="M385 343l-154 216q-3 5 -5 8.5t-4 5.5q-3 4 -4 8q-1 1 -1 4v3q0 12 9 17q4 2 11 3t17 2h64v57h-328l1 -58h24q11 0 19 -1q14 -1 29 -13q4 -2 7.5 -5.5l7.5 -7.5l8 -10t9 -11l214 -298v-148q0 -38 -13 -48q-11 -10 -48 -10h-6h-52v-57h347v57l-55 -1q-39 0 -52 11
q-13 10 -13 49v153l183 277q1 1 1 2t1 2l3 3q7 11 13.5 20.5t14.5 18.5q15 17 43 18h30v57h-267v-56l62 -1q18 0 28 -5q8 -6 8 -17q0 -6 -5 -18q-7 -14 -24 -38zM267 852v-1q-23 0 -40 -17t-17 -41q0 -23 17 -40t40 -17t40 17t17 40q0 25 -16 41t-41 18zM469 852v-1
q-23 0 -40 -17t-17 -41q0 -23 17 -40t40 -17t40 17t17 40q0 25 -16 41t-41 18z" />
    <glyph glyph-name="nonbreakingspace" unicode="&#xa0;" horiz-adv-x="278" 
 />
    <glyph glyph-name="endash" unicode="&#xa1;" horiz-adv-x="267" 
d="M112 305l-42 -383q-1 -7 -1 -13q0 -7 -1 -12q-1 -6 -1 -10v-7q0 -30 19 -48q18 -19 48 -19q28 0 47 19q18 18 18 46v10q-1 6 -3 29l-40 388h-44zM134 484v-1q-27 0 -46 -19q-20 -20 -20 -48q0 -26 20 -46t46 -20q27 0 47 20q19 19 19 46q0 29 -19 48q-19 18 -47 20z" />
    <glyph glyph-name="cent" unicode="&#xa2;" 
d="M278 585v-1q-105 -4 -164 -72q-58 -67 -58 -184q0 -105 60 -169q58 -65 162 -72v-108h53v107q73 10 122 65q48 54 59 139l-57 -1q-10 -58 -43 -95q-33 -38 -81 -42v375h8q3 -1 8 -1q17 -3 39 -11q17 -7 25 -18q1 -1 1 -2t1 -2t1 -4q0 -2 -2 -4q-1 -1 -7 -3
q-17 -2 -27 -15t-10 -34q0 -26 18 -42q18 -18 45 -18q32 0 53 21q21 19 21 54q0 54 -49 93q-50 38 -125 44v98h-53v-98zM278 525v-370q-55 10 -86 58q-31 46 -31 121q0 79 32 132q32 51 85 59z" />
    <glyph glyph-name="sterling" unicode="&#xa3;" 
d="M245 334v-1l-6 15q-2 4 -4 7t-4 7q-7 13 -12.5 26t-10.5 27q-11 28 -11 56q0 50 38 82t95 32q55 0 91 -18q35 -20 44 -51q-6 1 -9 3h-7h-3h-3q-21 0 -37 -14q-15 -15 -15 -38q0 -26 18 -42q18 -18 44 -18q33 0 53 24q19 22 19 63q0 74 -57 116q-59 42 -157 42
q-96 0 -159 -54t-63 -137q0 -28 11 -61q10 -32 33 -66h-61v-50l90 -1q7 -17 12 -30q3 -14 3 -25q0 -47 -26 -91q-13 -22 -33 -42t-46 -40l24 -60q12 10 23.5 18t22.5 14q22 11 42 14q6 0 9 1h8q7 0 13 -0.5t13 -1.5l24 -6q7 -2 14 -5t15 -5l14 -6l14 -6l28 -10l28 -10
q28 -9 58 -9q69 0 87 38q17 36 22 84q0 8 1 11v10q1 5 1 10t1 10v9q0 5 1 10l-55 -1q1 -5 1 -11v-6q0 -46 -10 -65t-33 -19q-12 0 -24 3l-12 4l-12 4q-4 2 -8 3.5t-8 3.5t-8 4.5t-9 4.5q-10 5 -20 9t-21 9q-24 8 -45 8h-10q-4 -1 -11 -1q-19 -3 -37 -10q-10 -4 -20.5 -9.5
t-23.5 -12.5l8 8q4 6 7 9q1 0 2 1q0 1 1 2q14 16 27.5 33t26.5 34q24 34 24 81v6v5q-1 2 -1 4q0 3 -1 5t-1 5q0 4 -1 8h120v50h-136z" />
    <glyph glyph-name="Idieresis" unicode="&#xa4;" horiz-adv-x="667" 
d="M40 129l53 -54l99 97q10 -7 19.5 -12.5t19.5 -10.5q20 -11 38 -15l16 -4t16 -3q16 -3 33 -3q39 0 74 12q17 6 34 15.5t34 22.5l99 -99l54 54l-99 98q6 8 11 17t10 17q4 8 7.5 16t6.5 16q6 16 9 35q3 18 3 38q0 10 -0.5 19t-1.5 18q-3 18 -9 34q-5 15 -15 34
q-5 8 -10 17.5t-12 19.5l98 98l-54 54l-99 -99q-14 10 -27 18q-7 4 -13.5 7.5t-13.5 5.5q-11 5 -21 8t-20 5q-20 3 -43 3q-24 0 -43 -3q-10 -2 -19.5 -4.5t-19.5 -6.5q-8 -3 -15 -6.5l-15 -7.5t-16.5 -9t-16.5 -10l-99 99l-54 -54l99 -100q-5 -8 -9.5 -15t-8.5 -14
q-8 -14 -14 -28q-8 -21 -11 -40q-2 -10 -3 -21t-1 -22q0 -38 12 -72q13 -36 36 -67zM334 522v-1q64 0 109 -45q44 -47 44 -110q0 -64 -45 -109t-108 -45q-64 0 -109 45t-45 109q0 63 45 110q44 44 109 46z" />
    <glyph glyph-name="ae" unicode="&#xa5;" 
d="M423 413l81 136q2 5 4.5 9t4.5 8t4 7l4 6q10 16 25 25q13 7 48 9v54h-225v-54l50 -1q17 0 27 -5q9 -5 9 -16v-1q0 -7 -5 -19q-6 -11 -21 -36l-110 -192l-142 219q-1 1 -1 2t-1 2t-1 2t-1 2q-2 3 -4 11t-2 10q0 12 9 17q4 2 11 3t17 2h51v54h-282l1 -55q24 0 41 -5
q13 -5 28 -20q3 -3 9 -11l9 -12l99 -151h-90v-50h122l39 -60h-148v-50h162v-141q0 -38 -12 -48q-13 -11 -48 -11h-6h-42v-53h321v53l-46 -1q-40 0 -52 12q-13 10 -13 49v140h164v50h-153l35 60h132v50h-102z" />
    <glyph glyph-name="section" unicode="&#xa7;" 
d="M169 -96l15 12q4 2 7 5l5 5q8 10 12 19t4 21q0 29 -19 45q-20 17 -48 17q-31 0 -52 -21t-21 -52q0 -57 57 -94q58 -38 140 -38q101 0 163 47q60 46 60 127q0 42 -18 74t-58 54q55 30 79 63q23 34 23 78q0 73 -53 106q-55 32 -119 53q-4 1 -7 2t-7 2q-5 1 -15 5
q-29 8 -53.5 18.5t-46.5 21.5q-43 22 -43 70q0 36 34 61q33 24 82 24q30 0 52 -5q10 -2 19 -6.5t17 -9.5q-3 -2 -7 -6q-2 -2 -3.5 -3t-3.5 -2q-11 -9 -16 -22q-5 -12 -5 -26q0 -24 19 -40q18 -18 43 -18q30 0 50 20q19 19 19 48q0 56 -52 90t-136 34q-89 0 -144 -46
q-56 -47 -56 -120q0 -34 20 -65t56 -54q-60 -26 -86 -59q-27 -35 -27 -83q0 -72 54 -103q55 -32 119 -53q8 -4 13 -5l6 -2l6 -2q57 -18 103 -42q44 -24 44 -72q0 -47 -36 -72q-36 -27 -99 -27q-31 0 -52 6t-38 20zM431 238v-1q0 -28 -23 -51t-53 -23q-15 0 -43 6
q-14 3 -29 7.5t-31 9.5q-44 15 -79 40q-37 25 -37 56t23 57q22 24 54 24h7h6q21 -2 43 -9q11 -4 26 -9t32 -12q13 -5 24 -10t20 -10t16.5 -9.5t13.5 -9.5q17 -12 24 -25q6 -14 6 -31z" />
    <glyph glyph-name="dieresis" unicode="&#xa8;" horiz-adv-x="449" 
d="M123 659v-1q-23 0 -40 -17t-17 -41q0 -23 17 -40t40 -17t40 17t17 40q0 25 -16 41t-41 18zM325 659v-1q-23 0 -40 -17t-17 -41q0 -23 17 -40t40 -17t40 17t17 40q0 25 -16 41t-41 18z" />
    <glyph glyph-name="copyright" unicode="&#xa9;" horiz-adv-x="769" 
d="M387 683v-1q-146 0 -246 -102q-102 -102 -102 -248q0 -145 102 -247q100 -102 246 -102q142 0 243 102q100 101 100 247q0 145 -100 248q-100 101 -243 103zM386 633v-1q118 0 204 -87q85 -88 85 -213q0 -124 -85 -212t-204 -88q-121 0 -206 88q-86 89 -86 212
q0 124 86 213q85 87 206 88zM500 491v-1q-17 17 -39 26q-22 7 -47 12q-5 1 -11 1.5t-12 1.5h-23q-87 0 -142 -58q-56 -59 -56 -149q0 -86 58 -138q58 -53 149 -53q84 0 133 43q51 43 58 121h-47l-1 -4q-11 -52 -46 -81q-38 -30 -88 -30q-61 0 -98 40q-37 38 -37 105
q0 72 38 116q37 42 101 42h6h5q43 -4 79 -36t36 -78h40v156h-39z" />
    <glyph glyph-name="ellipsis" unicode="&#xaa;" horiz-adv-x="331" 
d="M327 324h-306v-40h306v40zM294 494v-28q0 -32 -3 -42q-3 -11 -14 -11q-8 0 -12 6q-4 4 -4 19v133q0 43 -27 63q-26 19 -90 19q-53 0 -82 -19q-31 -19 -31 -53q0 -17 11 -28q10 -12 27 -12q18 0 29 10q11 11 11 26q0 10 -5 18q-4 5 -14 10l4 2l4 2t3 1q2 0 4 1q10 4 15 5
t15 1q32 0 49 -11q16 -10 16 -34q0 -21 -20 -29q-21 -8 -48 -12q-3 -1 -6 -1t-5 -1q-3 -1 -6 -1t-6 -1q-34 -6 -62 -22q-29 -17 -29 -65q0 -34 23 -54t62 -20q22 0 42 6t27 16q5 6 9.5 10.5l8.5 8.5q3 4 4.5 5.5l2.5 2.5l3 -1l1 -1.5l3 -4.5q2 -4 3.5 -8.5t3.5 -9.5
q3 -8 19 -14q14 -7 33 -7q37 0 52 22t15 76v27h-36zM198 515v-1q0 -36 -11 -69q-11 -32 -60 -32q-20 0 -30 9q-11 9 -11 25q0 23 20 35q21 11 44 17l6 2l6 2q8 2 11 3q4 1 7 2t7 2q6 1 11 5z" />
    <glyph glyph-name="ydieresis" unicode="&#xab;" horiz-adv-x="435" 
d="M133 439v-1q-4 -5 -8 -11.5t-9 -14.5t-11 -16.5t-11 -17.5q-3 -4 -7 -12q-3 -4 -7 -12q-15 -24 -23 -44q-10 -21 -10 -37q0 -15 25 -61q12 -23 27 -48.5t34 -52.5l58 -1l-9 21q-2 5 -5 11t-5 12q-2 5 -4 10.5t-4 10.5t-4 11t-4 11q-4 10 -6.5 20t-4.5 20q-5 22 -5 36
q0 20 14 64q7 21 16 46.5t22 55.5h-59zM329 439v-1q-4 -5 -8 -11.5t-9 -14.5t-11 -16.5t-11 -17.5q-3 -4 -7 -12q-2 -4 -4 -7l-4 -6q-7 -11 -12 -22l-10 -22q-10 -20 -10 -36q0 -14 25 -60q12 -23 27 -48.5t34 -53.5l58 -1l-9 21q-2 5 -5 11t-5 12q-2 5 -4 10.5t-4 10.5
t-4 11t-4 11q-4 10 -6.5 20t-4.5 20q-5 22 -5 36q0 20 14 65q7 21 16 46.5t22 54.5h-59z" />
    <glyph glyph-name="emdash" unicode="&#xac;" horiz-adv-x="278" 
 />
    <glyph glyph-name="registered" unicode="&#xae;" horiz-adv-x="769" 
d="M387 683v-1q-146 0 -246 -102q-102 -102 -102 -248q0 -145 102 -247q100 -102 246 -102q142 0 243 102q100 101 100 247q0 145 -100 248q-100 101 -243 103zM386 633v-1q118 0 204 -87q85 -88 85 -213q0 -124 -85 -212t-204 -88q-121 0 -206 88q-86 89 -86 212
q0 124 86 213q85 87 206 88zM561 261v-45q0 -16 -4 -23q-5 -8 -14 -8q-12 0 -16 10q-2 5 -3 15.5t-2 27.5q-2 39 -10 59q-9 22 -43 38l2 1q2 1 5 2t5 2t4.5 2t4.5 2q28 12 45 29q16 16 16 55q0 44 -32 70q-31 23 -91 25h-238v-38l24 -1q22 0 30 -5q7 -6 7 -24v-245
q0 -20 -7 -24q-7 -5 -24 -5h-6h-24v-38h198v38l-27 -1q-23 0 -30 6q-7 4 -7 25v111l54 -1q49 0 59 -28q10 -29 12 -63q2 -36 12 -64q10 -30 62 -30q41 0 60 19q18 19 18 62v44h-40zM324 362v120l73 -1q37 0 57 -14q18 -15 18 -44t-18 -45q-17 -16 -49 -16h-4h-77z" />
    <glyph glyph-name="mu" unicode="&#xb1;" 
d="M67 143v-91h433v91h-433zM67 439v-91h168v-163h98v163h167v91h-167v163h-98v-163h-168z" />
    <glyph glyph-name="acute" unicode="&#xb4;" horiz-adv-x="500" 
d="M208 517l117 109q6 6 8 9q2 2 4 6q0 2 1 3v3q0 7 -6 12q-6 3 -20 5h-88l-62 -147h46z" />
    <glyph glyph-name="oslash" unicode="&#xb5;" horiz-adv-x="544" 
d="M60 -170h98v225q23 -36 49 -51q25 -16 64 -16t68 20q26 19 48 64v-72h98v479h-98v-250v-12q0 -8 -1 -12q-5 -50 -28 -90q-26 -42 -85 -42q-58 0 -86 37q-29 37 -29 113v256h-98v-649z" />
    <glyph glyph-name="paragraph" unicode="&#xb6;" 
d="M201 -96h85v686h95v-686h84v686h66v76l-299 -1q-89 0 -156 -37q-69 -38 -69 -140q0 -86 57 -129q55 -42 133 -42h4v-413z" />
    <glyph glyph-name="Ucircumflex" unicode="&#xb7;" 
d="M283 308v-1q-28 0 -47 -19t-19 -47q0 -27 19 -46q20 -20 47 -20q28 0 47 19t19 47t-19 47q-19 18 -47 20z" />
    <glyph glyph-name="Ucircumflex" unicode="&#x2219;" 
d="M283 308v-1q-28 0 -47 -19t-19 -47q0 -27 19 -46q20 -20 47 -20q28 0 47 19t19 47t-19 47q-19 18 -47 20z" />
    <glyph glyph-name="bullet.0" unicode="&#xb8;" horiz-adv-x="500" 
d="M280 1h-39l-54 -78l17 -16q11 4 20 6l15 3h2h2q20 0 33 -10t13 -27t-14 -28t-39 -11h-4h-5q-8 1 -15 2t-15 3t-16.5 5t-18.5 7l-15 -33q8 -4 16 -6.5t16 -4.5l14 -4t14 -3q5 -1 10 -1.5t10 -0.5q5 -1 9 -1h10q46 0 78 23q30 22 30 57q0 28 -22 47q-23 18 -57 18h-4h-5
q-2 -1 -5 -1t-6 -1q-6 -2 -15 -3z" />
    <glyph glyph-name="Agrave" unicode="&#xba;" horiz-adv-x="347" 
d="M319 324h-290v-40h290v40zM174 654v-1q-69 0 -109 -39q-41 -41 -41 -108q0 -64 42 -101q42 -39 109 -39q68 0 108 40q40 39 40 105q0 61 -41 102q-41 39 -108 41zM173 614v-1q39 0 60 -27q20 -29 20 -81q0 -47 -20 -73t-57 -26q-40 0 -61 26q-21 25 -21 76q0 48 21 77
q20 27 58 29z" />
    <glyph glyph-name="Ydieresis" unicode="&#xbb;" horiz-adv-x="435" 
d="M106 111v-1q4 5 8 11.5t9 14.5t10.5 16t10.5 16l4 6t4 7t4 7t4 7q7 11 12.5 21.5t10.5 21.5q9 21 9 37q0 14 -24 61q-13 23 -28 49t-34 54l-57 -1q2 -5 4.5 -11t5.5 -13q2 -7 5 -13.5t6 -13.5q2 -5 3.5 -9t3.5 -9q3 -12 7 -19q7 -20 12 -39q4 -17 4 -36q0 -22 -13 -64
q-7 -22 -17 -46.5t-23 -53.5h59zM302 111v-1q4 5 8 11.5t9 13.5t10 15l10 16q2 4 5 7.5t5 7.5t4 7t4 7q7 11 12 22l10 22q9 21 9 36q0 14 -24 61q-13 23 -28 49t-34 54l-57 -1q2 -5 4.5 -11t5.5 -13q4 -13 11 -28q2 -4 3.5 -8t3.5 -9l6 -18q7 -20 12 -39q5 -22 5 -37
q0 -24 -13 -64q-7 -22 -17 -46.5t-23 -53.5h59z" />
    <glyph glyph-name="oe" unicode="&#xbf;" horiz-adv-x="557" 
d="M243 302v-1q-6 -56 -37 -87q-16 -16 -32.5 -30.5t-34.5 -27.5q-20 -14 -37.5 -29.5t-34.5 -32.5q-33 -35 -33 -101q0 -83 64 -131q64 -49 170 -49q97 0 157 51q59 50 59 133q0 43 -25 74q-26 30 -63 30q-30 0 -52 -20q-21 -21 -21 -51q0 -29 18 -45q17 -17 43 -17h3h2
q4 1 8 1.5t8 2.5q8 2 19 8q-7 -49 -43 -76q-35 -28 -92 -28q-63 0 -103 33q-41 32 -41 82q0 37 16 62q16 27 37 48l12 12q2 3 5 6l6 6q28 29 52 70q22 39 24 107h-54zM271 484v-1q-27 0 -46 -19q-20 -20 -20 -48q0 -26 20 -46t46 -20q27 0 47 20q19 19 19 46q0 29 -19 48
q-19 18 -47 20z" />
    <glyph glyph-name="currency" unicode="&#xc0;" horiz-adv-x="757" 
d="M497 222l47 -112q3 -7 5 -11.5t3 -7.5q2 -10 2 -12q0 -14 -10 -18q-8 -4 -30 -4h-8h-57v-57h325v57l-36 -1q-33 0 -46 15q-15 15 -25 36q-3 4 -7 14q-2 4 -3.5 7.5t-3.5 7.5l-227 531h-105l-207 -518q-3 -8 -6 -14.5t-5 -12.5q-3 -6 -6 -11.5t-5 -10.5q-17 -29 -37 -36
q-18 -7 -60 -7h-11v-57h296v57l-53 -1q-30 0 -43 8q-12 7 -12 27q0 15 4 28q3 15 9 29q2 5 3.5 9t3.5 8t3 8t3 9t4.5 10t4.5 10l4 10l4 10h282zM472 283h-234l111 286zM420 717h47l-63 147l-87 -1q-14 0 -19 -4q-7 -4 -7 -12q0 -2 1 -3v-4q2 -4 4 -6t4 -3.5t4 -3.5z" />
    <glyph glyph-name="breve" unicode="&#xc1;" horiz-adv-x="757" 
d="M497 222l47 -112q3 -7 5 -11.5t3 -7.5q2 -10 2 -12q0 -14 -10 -18q-8 -4 -30 -4h-8h-57v-57h325v57l-36 -1q-33 0 -46 15q-15 15 -25 36q-3 4 -7 14q-2 4 -3.5 7.5t-3.5 7.5l-227 531h-105l-207 -518q-3 -8 -6 -14.5t-5 -12.5q-3 -6 -6 -11.5t-5 -10.5q-17 -29 -37 -36
q-18 -7 -60 -7h-11v-57h296v57l-53 -1q-30 0 -43 8q-12 7 -12 27q0 15 4 28q3 15 9 29q2 5 3.5 9t3.5 8t3 8t3 9t4.5 10t4.5 10l4 10l4 10h282zM472 283h-234l111 286zM337 717l117 109q6 6 8 9q2 2 4 6q0 2 1 3v3q0 7 -6 12q-6 3 -20 5h-88l-62 -147h46z" />
    <glyph glyph-name="tilde" unicode="&#xc2;" horiz-adv-x="757" 
d="M497 222l47 -112q3 -7 5 -11.5t3 -7.5q2 -10 2 -12q0 -14 -10 -18q-8 -4 -30 -4h-8h-57v-57h325v57l-36 -1q-33 0 -46 15q-15 15 -25 36q-3 4 -7 14q-2 4 -3.5 7.5t-3.5 7.5l-227 531h-105l-207 -518q-3 -8 -6 -14.5t-5 -12.5q-3 -6 -6 -11.5t-5 -10.5q-17 -29 -37 -36
q-18 -7 -60 -7h-11v-57h296v57l-53 -1q-30 0 -43 8q-12 7 -12 27q0 15 4 28q3 15 9 29q2 5 3.5 9t3.5 8t3 8t3 9t4.5 10t4.5 10l4 10l4 10h282zM472 283h-234l111 286zM372 807l72 -84h88l-101 145h-96l-109 -145h65z" />
    <glyph glyph-name="guilsinglleft" unicode="&#xc3;" horiz-adv-x="757" 
d="M497 222l47 -112q3 -7 5 -11.5t3 -7.5q2 -10 2 -12q0 -14 -10 -18q-8 -4 -30 -4h-8h-57v-57h325v57l-36 -1q-33 0 -46 15q-15 15 -25 36q-3 4 -7 14q-2 4 -3.5 7.5t-3.5 7.5l-227 531h-105l-207 -518q-3 -8 -6 -14.5t-5 -12.5q-3 -6 -6 -11.5t-5 -10.5q-17 -29 -37 -36
q-18 -7 -60 -7h-11v-57h296v57l-53 -1q-30 0 -43 8q-12 7 -12 27q0 15 4 28q3 15 9 29q2 5 3.5 9t3.5 8t3 8t3 9t4.5 10t4.5 10l4 10l4 10h282zM472 283h-234l111 286zM506 851v-1q-2 -21 -10 -31q-9 -11 -26 -11q-22 0 -44 6q-20 4 -44 12q-11 3 -21.5 6t-21.5 6
q-25 5 -45 5q-43 0 -67 -32q-24 -30 -26 -87l54 -1q2 26 8 35q7 10 24 10h11t11 -1t10.5 -2t10.5 -3t11 -3t11 -3t11 -3.5t11 -3.5q11 -4 22 -7l22 -6q22 -6 44 -6q41 0 68 34t27 87h-51z" />
    <glyph glyph-name="Adieresis" unicode="&#xc4;" horiz-adv-x="757" 
d="M497 222l47 -112q3 -7 5 -11.5t3 -7.5q2 -10 2 -12q0 -14 -10 -18q-8 -4 -30 -4h-8h-57v-57h325v57l-36 -1q-33 0 -46 15q-15 15 -25 36q-3 4 -7 14q-2 4 -3.5 7.5t-3.5 7.5l-227 531h-105l-207 -518q-3 -8 -6 -14.5t-5 -12.5q-3 -6 -6 -11.5t-5 -10.5q-17 -29 -37 -36
q-18 -7 -60 -7h-11v-57h296v57l-53 -1q-30 0 -43 8q-12 7 -12 27q0 15 4 28q3 15 9 29q2 5 3.5 9t3.5 8t3 8t3 9t4.5 10t4.5 10l4 10l4 10h282zM472 283h-234l111 286zM278 852v-1q-23 0 -40 -17t-17 -41q0 -23 17 -40t40 -17t40 17t17 40q0 25 -16 41t-41 18zM480 852v-1
q-23 0 -40 -17t-17 -41q0 -23 17 -40t40 -17t40 17t17 40q0 25 -16 41t-41 18z" />
    <glyph glyph-name="Aring" unicode="&#xc5;" horiz-adv-x="757" 
d="M497 222l47 -112q3 -7 5 -11.5t3 -7.5q2 -10 2 -12q0 -14 -10 -18q-8 -4 -30 -4h-8h-57v-57h325v57l-36 -1q-33 0 -46 15q-15 15 -25 36q-3 4 -7 14q-2 4 -3.5 7.5t-3.5 7.5l-227 531h-105l-207 -518q-3 -8 -6 -14.5t-5 -12.5q-3 -6 -6 -11.5t-5 -10.5q-17 -29 -37 -36
q-18 -7 -60 -7h-11v-57h296v57l-53 -1q-30 0 -43 8q-12 7 -12 27q0 15 4 28q3 15 9 29q2 5 3.5 9t3.5 8t3 8t3 9t4.5 10t4.5 10l4 10l4 10h282zM472 283h-234l111 286zM380 889v-1q-42 0 -70 -28q-29 -29 -29 -70t29 -70t70 -29t70 29q28 28 28 70t-28 70q-27 27 -70 29z
M380 845v-1q22 0 39 -15q16 -16 16 -39t-16 -39t-39 -16q-22 0 -38 16t-16 39t16 39q16 15 38 16z" />
    <glyph glyph-name="Oslash" unicode="&#xc6;" horiz-adv-x="1111" 
d="M614 606l210 -1q45 0 70 -5q23 -6 39 -22l1 -1q1 0 2 -1l2 -2q24 -26 34 -61q10 -36 10 -101h61v255h-768v-58l92 -1q20 0 27 -4q6 -5 6 -17v-2v-3q-1 -2 -1.5 -5t-2.5 -6q-5 -8 -12 -18l-275 -418q-5 -8 -9.5 -15t-8.5 -13q-8 -12 -15 -21q-16 -17 -33 -23
q-18 -5 -48 -5h-11v-58h291v58l-55 -1q-28 0 -40 6q-13 4 -13 17q0 9 5 17q2 4 4.5 8t4.5 8l2 4t3 4q1 2 2 3.5t2 3.5l97 159h219v-172q0 -38 -12 -48q-11 -10 -48 -10h-6h-44v-57h652v277l-56 -1v-6q0 -4 1 -5v-4v-3q0 -51 -16 -93t-46 -72q-18 -18 -45 -26q-23 -6 -60 -6
h-11h-201v252l91 -1q52 0 69 -18q16 -19 16 -76v-36h61v315h-61v-41q0 -47 -19 -66t-61 -19h-4h-92v235zM506 347h-178l178 270v-270z" />
    <glyph glyph-name="Ccedilla" unicode="&#xc7;" horiz-adv-x="722" 
d="M378 -17q135 0 214 73q81 75 94 207l-67 -1q-16 -93 -76 -148q-61 -55 -147 -55q-102 0 -163 72q-62 73 -62 190q0 132 63 210t169 78q82 0 141 -56q58 -57 69 -147h54v268h-54l-30 -68q-20 16 -40 28q-10 6 -19 11l-18 10q-29 13 -62 21q-33 6 -78 6q-139 0 -227 -102
q-89 -103 -89 -262q0 -137 80 -229q79 -90 211 -104l-43 -62l17 -16q10 4 19 6q4 1 7 1.5t7 1.5h4h3q20 0 33 -10t13 -27t-14 -28q-16 -11 -40 -11h-4h-5q-8 1 -15 2t-15 3t-16.5 5t-18.5 7l-15 -33q8 -4 16 -6.5t16 -4.5l14 -4t14 -3q5 -1 10 -1.5t10 -0.5q5 -1 9 -1h10
q46 0 78 23q30 22 30 57q0 28 -22 47q-23 18 -57 18h-4h-5q-2 -1 -5 -1t-6 -1q-6 -2 -15 -3z" />
    <glyph glyph-name="ring" unicode="&#xc8;" horiz-adv-x="753" 
d="M251 606l233 -1q86 0 111 -58q24 -59 24 -129h59v249h-645v-57l44 -1q40 0 54 -11q12 -11 12 -47v-436q0 -38 -12 -48q-11 -10 -48 -10h-6h-44v-57h656v285l-61 -1q0 -119 -27 -171t-157 -52h-4h-189v257l99 -1q42 0 61 -22t19 -73v-35h58v315h-58v-45q0 -42 -20 -62
t-58 -20h-4h-97v231zM417 717h47l-63 147l-87 -1q-14 0 -19 -4q-7 -4 -7 -12q0 -2 1 -3v-4q2 -4 4 -6t4 -3.5t4 -3.5z" />
    <glyph glyph-name="Eacute" unicode="&#xc9;" horiz-adv-x="753" 
d="M251 606l233 -1q86 0 111 -58q24 -59 24 -129h59v249h-645v-57l44 -1q40 0 54 -11q12 -11 12 -47v-436q0 -38 -12 -48q-11 -10 -48 -10h-6h-44v-57h656v285l-61 -1q0 -119 -27 -171t-157 -52h-4h-189v257l99 -1q42 0 61 -22t19 -73v-35h58v315h-58v-45q0 -42 -20 -62
t-58 -20h-4h-97v231zM334 717l117 109q6 6 8 9q2 2 4 6q0 2 1 3v3q0 7 -6 12q-6 3 -20 5h-88l-62 -147h46z" />
    <glyph glyph-name="macron" unicode="&#xca;" horiz-adv-x="753" 
d="M251 606l233 -1q86 0 111 -58q24 -59 24 -129h59v249h-645v-57l44 -1q40 0 54 -11q12 -11 12 -47v-436q0 -38 -12 -48q-11 -10 -48 -10h-6h-44v-57h656v285l-61 -1q0 -119 -27 -171t-157 -52h-4h-189v257l99 -1q42 0 61 -22t19 -73v-35h58v315h-58v-45q0 -42 -20 -62
t-58 -20h-4h-97v231zM369 807l72 -84h88l-101 145h-96l-109 -145h65z" />
    <glyph glyph-name="dotaccent" unicode="&#xcb;" horiz-adv-x="753" 
d="M251 606l233 -1q86 0 111 -58q24 -59 24 -129h59v249h-645v-57l44 -1q40 0 54 -11q12 -11 12 -47v-436q0 -38 -12 -48q-11 -10 -48 -10h-6h-44v-57h656v285l-61 -1q0 -119 -27 -171t-157 -52h-4h-189v257l99 -1q42 0 61 -22t19 -73v-35h58v315h-58v-45q0 -42 -20 -62
t-58 -20h-4h-97v231zM275 852v-1q-23 0 -40 -17t-17 -41q0 -23 17 -40t40 -17t40 17t17 40q0 25 -16 41t-41 18zM477 852v-1q-23 0 -40 -17t-17 -41q0 -23 17 -40t40 -17t40 17t17 40q0 25 -16 41t-41 18z" />
    <glyph glyph-name="caron" unicode="&#xcc;" horiz-adv-x="395" 
d="M34 610l44 -1q40 0 54 -11q12 -11 12 -47v-436q0 -38 -12 -48q-11 -10 -48 -10h-6h-44v-57h328v57l-44 -1q-39 0 -53 11q-13 10 -13 49v434q0 38 13 48q14 11 53 12h44v57h-328v-57zM239 717h47l-63 147l-87 -1q-14 0 -19 -4q-7 -4 -7 -12q0 -2 1 -3v-4q2 -4 4 -6t4 -3.5
t4 -3.5z" />
    <glyph glyph-name="cedilla" unicode="&#xcd;" horiz-adv-x="395" 
d="M34 610l44 -1q40 0 54 -11q12 -11 12 -47v-436q0 -38 -12 -48q-11 -10 -48 -10h-6h-44v-57h328v57l-44 -1q-39 0 -53 11q-13 10 -13 49v434q0 38 13 48q14 11 53 12h44v57h-328v-57zM156 717l117 109q6 6 8 9q2 2 4 6q0 2 1 3v3q0 7 -6 12q-6 3 -20 5h-88l-62 -147h46z
" />
    <glyph glyph-name="hungarumlaut" unicode="&#xce;" horiz-adv-x="395" 
d="M34 610l44 -1q40 0 54 -11q12 -11 12 -47v-436q0 -38 -12 -48q-11 -10 -48 -10h-6h-44v-57h328v57l-44 -1q-39 0 -53 11q-13 10 -13 49v434q0 38 13 48q14 11 53 12h44v57h-328v-57zM191 807l72 -84h88l-101 145h-96l-109 -145h65z" />
    <glyph glyph-name="ogonek" unicode="&#xcf;" horiz-adv-x="395" 
d="M34 610l44 -1q40 0 54 -11q12 -11 12 -47v-436q0 -38 -12 -48q-11 -10 -48 -10h-6h-44v-57h328v57l-44 -1q-39 0 -53 11q-13 10 -13 49v434q0 38 13 48q14 11 53 12h44v57h-328v-57zM97 852v-1q-23 0 -40 -17t-17 -41q0 -23 17 -40t40 -17t40 17t17 40q0 25 -16 41
t-41 18zM299 852v-1q-23 0 -40 -17t-17 -41q0 -23 17 -40t40 -17t40 17t17 40q0 25 -16 41t-41 18z" />
    <glyph glyph-name="Ntilde" unicode="&#xd1;" horiz-adv-x="823" 
d="M261 667h-228v-57l38 -1q40 0 54 -11q12 -11 12 -47v-436q0 -38 -12 -48q-11 -10 -48 -10h-6h-38v-57h283v57l-44 -1q-40 0 -53 11q-13 10 -13 49v437l413 -553h81v550q0 38 13 48q14 11 53 12h30v57h-274v-58q82 0 96 -9q14 -11 14 -49v-384zM537 851v-1q-2 -21 -10 -31
q-9 -11 -26 -11q-22 0 -44 6q-20 4 -44 12q-11 3 -21.5 6t-21.5 6q-25 5 -45 5q-43 0 -67 -32q-24 -30 -26 -87l54 -1q2 26 8 35q7 10 24 10h11t11 -1t10.5 -2t10.5 -3t11 -3t11 -3t11 -3.5t11 -3.5q11 -4 22 -7l22 -6q22 -6 44 -6q41 0 68 34t27 87h-51z" />
    <glyph glyph-name="scaron" unicode="&#xd2;" horiz-adv-x="278" 
 />
    <glyph glyph-name="Lslash" unicode="&#xd3;" horiz-adv-x="803" 
d="M398 683v-1q-159 0 -254 -98q-94 -98 -94 -258q0 -154 96 -248q95 -95 249 -95q170 0 264 97q94 95 94 264q0 87 -39 165q-41 76 -108 120q-20 13 -43.5 23t-49.5 17t-55 10t-60 4zM401 621v-1q104 0 168 -76t64 -201q0 -145 -60 -221q-62 -78 -174 -78q-48 0 -93 20
q-44 20 -75 55q-33 39 -46 87q-14 51 -14 125q0 135 62 212q61 76 168 78zM360 716l117 109q6 6 8 9q2 2 4 6q0 2 1 3v3q0 7 -6 12q-6 3 -20 5h-88l-62 -147h46z" />
    <glyph glyph-name="lslash" unicode="&#xd4;" horiz-adv-x="803" 
d="M398 683v-1q-159 0 -254 -98q-94 -98 -94 -258q0 -154 96 -248q95 -95 249 -95q170 0 264 97q94 95 94 264q0 87 -39 165q-41 76 -108 120q-20 13 -43.5 23t-49.5 17t-55 10t-60 4zM401 621v-1q104 0 168 -76t64 -201q0 -145 -60 -221q-62 -78 -174 -78q-48 0 -93 20
q-44 20 -75 55q-33 39 -46 87q-14 51 -14 125q0 135 62 212q61 76 168 78zM395 807l72 -84h88l-101 145h-96l-109 -145h65z" />
    <glyph glyph-name="guilsinglright" unicode="&#xd5;" horiz-adv-x="803" 
d="M398 683v-1q-159 0 -254 -98q-94 -98 -94 -258q0 -154 96 -248q95 -95 249 -95q170 0 264 97q94 95 94 264q0 87 -39 165q-41 76 -108 120q-20 13 -43.5 23t-49.5 17t-55 10t-60 4zM401 621v-1q104 0 168 -76t64 -201q0 -145 -60 -221q-62 -78 -174 -78q-48 0 -93 20
q-44 20 -75 55q-33 39 -46 87q-14 51 -14 125q0 135 62 212q61 76 168 78zM529 850v-1q-2 -21 -10 -31q-9 -11 -26 -11q-22 0 -44 6q-20 4 -44 12q-11 3 -21.5 6t-21.5 6q-25 5 -45 5q-43 0 -67 -32q-24 -30 -26 -87l54 -1q2 26 8 35q7 10 24 10h11t11 -1t10.5 -2t10.5 -3
t11 -3t11 -3t11 -3.5t11 -3.5q11 -4 22 -7l22 -6q22 -6 44 -6q41 0 68 34t27 87h-51z" />
    <glyph glyph-name="Odieresis" unicode="&#xd6;" horiz-adv-x="803" 
d="M398 683v-1q-159 0 -254 -98q-94 -98 -94 -258q0 -154 96 -248q95 -95 249 -95q170 0 264 97q94 95 94 264q0 87 -39 165q-41 76 -108 120q-20 13 -43.5 23t-49.5 17t-55 10t-60 4zM401 621v-1q104 0 168 -76t64 -201q0 -145 -60 -221q-62 -78 -174 -78q-48 0 -93 20
q-44 20 -75 55q-33 39 -46 87q-14 51 -14 125q0 135 62 212q61 76 168 78zM301 852v-1q-23 0 -40 -17t-17 -41q0 -23 17 -40t40 -17t40 17t17 40q0 25 -16 41t-41 18zM503 852v-1q-23 0 -40 -17t-17 -41q0 -23 17 -40t40 -17t40 17t17 40q0 25 -16 41t-41 18z" />
    <glyph glyph-name="plusminus" unicode="&#xd8;" horiz-adv-x="804" 
d="M640 606v-1q-54 42 -112 59q-60 18 -126 18t-114 -13q-53 -14 -92 -40q-66 -44 -106 -125q-40 -80 -40 -173q0 -69 20 -127t61 -108l-55 -55l36 -37l55 55q49 -40 111 -58q60 -18 123 -18q164 0 258 97q95 97 95 262q0 59 -20 119q-10 29 -24.5 55.5t-33.5 51.5l55 55
l-37 37zM231 123l371 370q16 -32 24 -69q7 -35 7 -84q0 -143 -60 -219q-62 -77 -173 -77q-50 0 -93 21q-44 20 -76 58zM573 539l-372 -371q-1 1 -1 3l-1 1q0 1 -1 2q-15 32 -21 65q-6 34 -6 80q0 19 1 36.5t3 33.5q3 33 10 62q19 76 80 123q58 46 138 46q43 0 76 -11
q31 -10 62 -38q4 -4 8 -7.5t8 -7.5l8 -8t8 -9z" />
    <glyph glyph-name="Thorn" unicode="&#xd9;" horiz-adv-x="776" 
d="M16 611l38 -1q40 0 54 -11q12 -12 12 -48v-336q0 -127 75 -179q74 -53 192 -53q113 0 190 52q78 51 78 175v340q0 37 13 49q12 10 53 12h38v56h-283v-56l44 -1q40 0 54 -11q12 -12 12 -48v-299q0 -94 -41 -144q-42 -50 -143 -50q-75 0 -122 37q-48 36 -48 115v340
q0 37 13 49q14 11 53 12h38v56h-320v-56zM430 716h47l-63 147l-87 -1q-14 0 -19 -4q-7 -4 -7 -12q0 -2 1 -3v-4q2 -4 4 -6t4 -3.5t4 -3.5z" />
    <glyph glyph-name="Eth" unicode="&#xda;" horiz-adv-x="776" 
d="M16 611l38 -1q40 0 54 -11q12 -12 12 -48v-336q0 -127 75 -179q74 -53 192 -53q113 0 190 52q78 51 78 175v340q0 37 13 49q12 10 53 12h38v56h-283v-56l44 -1q40 0 54 -11q12 -12 12 -48v-299q0 -94 -41 -144q-42 -50 -143 -50q-75 0 -122 37q-48 36 -48 115v340
q0 37 13 49q14 11 53 12h38v56h-320v-56zM347 716l117 109q6 6 8 9q2 2 4 6q0 2 1 3v3q0 7 -6 12q-6 3 -20 5h-88l-62 -147h46z" />
    <glyph glyph-name="eth" unicode="&#xdb;" horiz-adv-x="776" 
d="M16 611l38 -1q40 0 54 -11q12 -12 12 -48v-336q0 -127 75 -179q74 -53 192 -53q113 0 190 52q78 51 78 175v340q0 37 13 49q12 10 53 12h38v56h-283v-56l44 -1q40 0 54 -11q12 -12 12 -48v-299q0 -94 -41 -144q-42 -50 -143 -50q-75 0 -122 37q-48 36 -48 115v340
q0 37 13 49q14 11 53 12h38v56h-320v-56zM382 807l72 -84h88l-101 145h-96l-109 -145h65z" />
    <glyph glyph-name="Udieresis" unicode="&#xdc;" horiz-adv-x="776" 
d="M16 611l38 -1q40 0 54 -11q12 -12 12 -48v-336q0 -127 75 -179q74 -53 192 -53q113 0 190 52q78 51 78 175v340q0 37 13 49q12 10 53 12h38v56h-283v-56l44 -1q40 0 54 -11q12 -12 12 -48v-299q0 -94 -41 -144q-42 -50 -143 -50q-75 0 -122 37q-48 36 -48 115v340
q0 37 13 49q14 11 53 12h38v56h-320v-56zM288 852v-1q-23 0 -40 -17t-17 -41q0 -23 17 -40t40 -17t40 17t17 40q0 25 -16 41t-41 18zM490 852v-1q-23 0 -40 -17t-17 -41q0 -23 17 -40t40 -17t40 17t17 40q0 25 -16 41t-41 18z" />
    <glyph glyph-name="germandbls" unicode="&#xdf;" horiz-adv-x="601" 
d="M270 162v-1v-1v-2q0 -64 17 -120q16 -55 99 -55q75 0 121 58q47 58 47 149q0 47 -12 88q-13 40 -37 71q-2 2 -3 3.5t-2 3.5l-6 6q-8 10 -17.5 17t-19.5 12q-17 8 -54 16q60 20 85 48t25 78q0 66 -53 104t-146 38h-16q-4 -1 -8 -1t-9 -1q-34 -3 -64 -13q-32 -11 -57 -33
q-26 -23 -36 -53q-11 -33 -11 -82v-377q0 -42 -9 -52t-42 -10h-6h-29v-53h184v491q0 67 23 99q22 31 75 31q50 0 77 -24q26 -26 26 -69q0 -51 -27 -73q-27 -24 -84 -24h-6h-5q-6 0 -9 1q-7 0 -11 1v-58q2 1 4 1t4 1q4 0 7 1h7h7q80 0 115 -51q35 -52 35 -122q0 -91 -15 -127
q-16 -37 -54 -37q-28 0 -43 19t-15 56v46h-52z" />
    <glyph glyph-name="agrave" unicode="&#xe0;" horiz-adv-x="570" 
d="M511 197v-42q0 -63 -6 -82q-8 -20 -30 -20q-16 0 -23 13q-8 13 -8 38v238q0 45 -11 70q-12 24 -41 41q-24 14 -60 22q-34 7 -86 7q-88 0 -137 -33q-50 -33 -50 -89q0 -27 17 -46q16 -19 42 -19q29 0 46 16q17 17 17 42q0 20 -9 31q-11 11 -32 15q16 16 42 24q22 7 55 7
q55 0 84 -21q28 -22 28 -65q0 -34 -17 -48q-17 -16 -77 -26q-5 -1 -10 -1q-4 0 -9 -1t-10.5 -2t-10.5 -2q-101 -17 -139 -50q-40 -34 -40 -105q0 -58 39 -92q37 -34 102 -34q54 0 92 21t72 70q1 1 1.5 2t1.5 2t1 2t1 2q6 -47 32 -70q25 -24 69 -24q87 0 102 52q14 53 14 116
v41h-52zM346 252v-65q0 -59 -35 -97q-34 -37 -93 -37q-37 0 -56 19q-21 18 -21 49q0 27 7 41q7 13 33 27q14 7 38 15l54 18q5 2 10 3t9 3q10 4 15 5q1 1 2 1t3 1t3 1t2 1q7 3 14 7q3 2 6.5 4t8.5 4zM306 516h47l-63 147l-87 -1q-14 0 -19 -4q-7 -4 -7 -12q0 -2 1 -3v-4
q2 -4 4 -6t4 -3.5t4 -3.5z" />
    <glyph glyph-name="aacute" unicode="&#xe1;" horiz-adv-x="570" 
d="M511 197v-42q0 -63 -6 -82q-8 -20 -30 -20q-16 0 -23 13q-8 13 -8 38v238q0 45 -11 70q-12 24 -41 41q-24 14 -60 22q-34 7 -86 7q-88 0 -137 -33q-50 -33 -50 -89q0 -27 17 -46q16 -19 42 -19q29 0 46 16q17 17 17 42q0 20 -9 31q-11 11 -32 15q16 16 42 24q22 7 55 7
q55 0 84 -21q28 -22 28 -65q0 -34 -17 -48q-17 -16 -77 -26q-5 -1 -10 -1q-4 0 -9 -1t-10.5 -2t-10.5 -2q-101 -17 -139 -50q-40 -34 -40 -105q0 -58 39 -92q37 -34 102 -34q54 0 92 21t72 70q1 1 1.5 2t1.5 2t1 2t1 2q6 -47 32 -70q25 -24 69 -24q87 0 102 52q14 53 14 116
v41h-52zM346 252v-65q0 -59 -35 -97q-34 -37 -93 -37q-37 0 -56 19q-21 18 -21 49q0 27 7 41q7 13 33 27q14 7 38 15l54 18q5 2 10 3t9 3q10 4 15 5q1 1 2 1t3 1t3 1t2 1q7 3 14 7q3 2 6.5 4t8.5 4zM223 516l117 109q6 6 8 9q2 2 4 6q0 2 1 3v3q0 7 -6 12q-6 3 -20 5h-88
l-62 -147h46z" />
    <glyph glyph-name="acircumflex" unicode="&#xe2;" horiz-adv-x="570" 
d="M511 197v-42q0 -63 -6 -82q-8 -20 -30 -20q-16 0 -23 13q-8 13 -8 38v238q0 45 -11 70q-12 24 -41 41q-24 14 -60 22q-34 7 -86 7q-88 0 -137 -33q-50 -33 -50 -89q0 -27 17 -46q16 -19 42 -19q29 0 46 16q17 17 17 42q0 20 -9 31q-11 11 -32 15q16 16 42 24q22 7 55 7
q55 0 84 -21q28 -22 28 -65q0 -34 -17 -48q-17 -16 -77 -26q-5 -1 -10 -1q-4 0 -9 -1t-10.5 -2t-10.5 -2q-101 -17 -139 -50q-40 -34 -40 -105q0 -58 39 -92q37 -34 102 -34q54 0 92 21t72 70q1 1 1.5 2t1.5 2t1 2t1 2q6 -47 32 -70q25 -24 69 -24q87 0 102 52q14 53 14 116
v41h-52zM346 252v-65q0 -59 -35 -97q-34 -37 -93 -37q-37 0 -56 19q-21 18 -21 49q0 27 7 41q7 13 33 27q14 7 38 15l54 18q5 2 10 3t9 3q10 4 15 5q1 1 2 1t3 1t3 1t2 1q7 3 14 7q3 2 6.5 4t8.5 4zM258 607l72 -84h88l-101 145h-96l-109 -145h65z" />
    <glyph glyph-name="atilde" unicode="&#xe3;" horiz-adv-x="570" 
d="M511 197v-42q0 -63 -6 -82q-8 -20 -30 -20q-16 0 -23 13q-8 13 -8 38v238q0 45 -11 70q-12 24 -41 41q-24 14 -60 22q-34 7 -86 7q-88 0 -137 -33q-50 -33 -50 -89q0 -27 17 -46q16 -19 42 -19q29 0 46 16q17 17 17 42q0 20 -9 31q-11 11 -32 15q16 16 42 24q22 7 55 7
q55 0 84 -21q28 -22 28 -65q0 -34 -17 -48q-17 -16 -77 -26q-5 -1 -10 -1q-4 0 -9 -1t-10.5 -2t-10.5 -2q-101 -17 -139 -50q-40 -34 -40 -105q0 -58 39 -92q37 -34 102 -34q54 0 92 21t72 70q1 1 1.5 2t1.5 2t1 2t1 2q6 -47 32 -70q25 -24 69 -24q87 0 102 52q14 53 14 116
v41h-52zM346 252v-65q0 -59 -35 -97q-34 -37 -93 -37q-37 0 -56 19q-21 18 -21 49q0 27 7 41q7 13 33 27q14 7 38 15l54 18q5 2 10 3t9 3q10 4 15 5q1 1 2 1t3 1t3 1t2 1q7 3 14 7q3 2 6.5 4t8.5 4zM392 650v-1q-2 -21 -10 -31q-9 -11 -26 -11q-22 0 -44 6q-20 4 -44 12
q-11 3 -21.5 6t-21.5 6q-25 5 -45 5q-43 0 -67 -32q-24 -30 -26 -87l54 -1q2 26 8 35q7 10 24 10h11t11 -1t10.5 -2t10.5 -3t11 -3t11 -3t11 -3.5t11 -3.5q11 -4 22 -7l22 -6q22 -6 44 -6q41 0 68 34t27 87h-51z" />
    <glyph glyph-name="adieresis" unicode="&#xe4;" horiz-adv-x="570" 
d="M511 197v-42q0 -63 -6 -82q-8 -20 -30 -20q-16 0 -23 13q-8 13 -8 38v238q0 45 -11 70q-12 24 -41 41q-24 14 -60 22q-34 7 -86 7q-88 0 -137 -33q-50 -33 -50 -89q0 -27 17 -46q16 -19 42 -19q29 0 46 16q17 17 17 42q0 20 -9 31q-11 11 -32 15q16 16 42 24q22 7 55 7
q55 0 84 -21q28 -22 28 -65q0 -34 -17 -48q-17 -16 -77 -26q-5 -1 -10 -1q-4 0 -9 -1t-10.5 -2t-10.5 -2q-101 -17 -139 -50q-40 -34 -40 -105q0 -58 39 -92q37 -34 102 -34q54 0 92 21t72 70q1 1 1.5 2t1.5 2t1 2t1 2q6 -47 32 -70q25 -24 69 -24q87 0 102 52q14 53 14 116
v41h-52zM346 252v-65q0 -59 -35 -97q-34 -37 -93 -37q-37 0 -56 19q-21 18 -21 49q0 27 7 41q7 13 33 27q14 7 38 15l54 18q5 2 10 3t9 3q10 4 15 5q1 1 2 1t3 1t3 1t2 1q7 3 14 7q3 2 6.5 4t8.5 4zM163 659v-1q-23 0 -40 -17t-17 -41q0 -23 17 -40t40 -17t40 17t17 40
q0 25 -16 41t-41 18zM365 659v-1q-23 0 -40 -17t-17 -41q0 -23 17 -40t40 -17t40 17t17 40q0 25 -16 41t-41 18z" />
    <glyph glyph-name="aring" unicode="&#xe5;" horiz-adv-x="570" 
d="M511 197v-42q0 -63 -6 -82q-8 -20 -30 -20q-16 0 -23 13q-8 13 -8 38v238q0 45 -11 70q-12 24 -41 41q-24 14 -60 22q-34 7 -86 7q-88 0 -137 -33q-50 -33 -50 -89q0 -27 17 -46q16 -19 42 -19q29 0 46 16q17 17 17 42q0 20 -9 31q-11 11 -32 15q16 16 42 24q22 7 55 7
q55 0 84 -21q28 -22 28 -65q0 -34 -17 -48q-17 -16 -77 -26q-5 -1 -10 -1q-4 0 -9 -1t-10.5 -2t-10.5 -2q-101 -17 -139 -50q-40 -34 -40 -105q0 -58 39 -92q37 -34 102 -34q54 0 92 21t72 70q1 1 1.5 2t1.5 2t1 2t1 2q6 -47 32 -70q25 -24 69 -24q87 0 102 52q14 53 14 116
v41h-52zM346 252v-65q0 -59 -35 -97q-34 -37 -93 -37q-37 0 -56 19q-21 18 -21 49q0 27 7 41q7 13 33 27q14 7 38 15l54 18q5 2 10 3t9 3q10 4 15 5q1 1 2 1t3 1t3 1t2 1q7 3 14 7q3 2 6.5 4t8.5 4zM266 699v-1q-42 0 -70 -28q-29 -29 -29 -70t29 -70t70 -29t70 29
q28 28 28 70t-28 70q-27 27 -70 29zM266 655v-1q22 0 39 -15q16 -16 16 -39t-16 -39t-39 -16q-22 0 -38 16t-16 39t16 39q16 15 38 16z" />
    <glyph glyph-name="Otilde" unicode="&#xe6;" horiz-adv-x="846" 
d="M802 228v-1q1 5 1 12v8q0 111 -61 172q-62 62 -172 62q-45 0 -84 -14q-38 -14 -72 -45q-27 30 -68 44q-44 15 -99 15q-79 0 -132 -35t-53 -90q0 -29 18 -47q16 -19 44 -19q26 0 43 17t17 41q0 15 -9 29q-11 13 -27 20q3 3 5 4q1 1 2 1t2 1q8 5 17 9.5t19 6.5q16 4 44 4
q60 0 88 -22q29 -23 29 -66q0 -40 -36 -53q-38 -14 -85 -21q-5 -1 -10 -1q-4 0 -9 -1t-9 -2t-9 -2q-30 -5 -57 -14.5t-52 -23.5q-50 -29 -50 -110q0 -52 41 -88q40 -36 101 -36q59 0 109 27q48 27 82 79q32 -55 84 -80q54 -26 115 -26q88 0 151 51q61 51 78 138l-63 -1
q-15 -58 -52 -91q-38 -33 -92 -33q-82 0 -117 53q-35 52 -37 128h365zM350 246v-59q0 -62 -34 -97q-34 -37 -92 -37q-37 0 -59 18q-23 18 -23 46q0 39 24 59q22 19 90 34q2 1 3 1t3 1q4 0 6 1q4 1 7 2l6 2q8 2 13 3q6 2 12 4.5t13 5.5q15 7 31 16zM695 285l-256 -1
q7 67 41 104q33 35 87 35q59 0 94 -36q32 -37 34 -102z" />
    <glyph glyph-name="ccedilla" unicode="&#xe7;" horiz-adv-x="544" 
d="M289 -17q98 2 150 59q51 56 65 150l-58 -1q-11 -65 -48 -104q-38 -39 -90 -39q-74 0 -114 49q-41 49 -41 133q0 92 40 144q39 51 109 51h9t12 -1q6 -1 12.5 -2t13.5 -3q19 -4 39 -14q18 -9 18 -20q0 -4 -3 -5q-4 -2 -7 -2h-2q-2 0 -3 -1h-1h-2q-13 -1 -22 -15t-9 -32
q0 -28 18 -46t46 -18q34 0 54 23q19 22 19 59q0 59 -57 97q-56 37 -146 37q-115 0 -179 -69q-65 -70 -65 -191q0 -98 54 -162q52 -64 151 -75l-43 -62l18 -16q5 2 9 3t8 3q4 1 7 1.5t7 1.5h4h4q20 0 33 -10t13 -27t-14 -28q-16 -11 -40 -11h-4h-5q-8 1 -15 2t-15 3t-16.5 5
t-18.5 7l-15 -33q8 -4 16 -6.5t16 -4.5l14 -4t14 -3q5 -1 10 -1.5t10 -0.5q5 -1 9 -1h10q47 0 78 22q30 22 30 57q0 29 -22 48q-23 18 -57 18h-4h-5q-2 -1 -5 -1t-6 -1q-6 -2 -15 -3z" />
    <glyph glyph-name="egrave" unicode="&#xe8;" horiz-adv-x="558" 
d="M515 229v-1v50q-1 8 -1.5 15.5t-2.5 14.5q-1 3 -1 6q0 4 -1 8t-2 7.5t-3 8.5q-16 64 -77 105q-60 39 -141 39q-109 0 -174 -68q-65 -70 -65 -188q0 -109 66 -176t175 -67q86 0 147 50q58 49 78 141l-64 -1q-14 -58 -52 -90q-41 -33 -95 -33q-82 0 -114 53q-33 54 -34 126
h361zM409 286l-255 -1q6 64 42 103q35 38 88 38q57 0 90 -36q34 -38 35 -104zM321 516h47l-63 147l-87 -1q-14 0 -19 -4q-7 -4 -7 -12q0 -2 1 -3v-4q2 -4 4 -6t4 -3.5t4 -3.5z" />
    <glyph glyph-name="eacute" unicode="&#xe9;" horiz-adv-x="558" 
d="M515 229v-1v50q-1 8 -1.5 15.5t-2.5 14.5q-1 3 -1 6q0 4 -1 8t-2 7.5t-3 8.5q-16 64 -77 105q-60 39 -141 39q-109 0 -174 -68q-65 -70 -65 -188q0 -109 66 -176t175 -67q86 0 147 50q58 49 78 141l-64 -1q-14 -58 -52 -90q-41 -33 -95 -33q-82 0 -114 53q-33 54 -34 126
h361zM409 286l-255 -1q6 64 42 103q35 38 88 38q57 0 90 -36q34 -38 35 -104zM238 516l117 109q6 6 8 9q2 2 4 6q0 2 1 3v3q0 7 -6 12q-6 3 -20 5h-88l-62 -147h46z" />
    <glyph glyph-name="ecircumflex" unicode="&#xea;" horiz-adv-x="558" 
d="M515 229v-1v50q-1 8 -1.5 15.5t-2.5 14.5q-1 3 -1 6q0 4 -1 8t-2 7.5t-3 8.5q-16 64 -77 105q-60 39 -141 39q-109 0 -174 -68q-65 -70 -65 -188q0 -109 66 -176t175 -67q86 0 147 50q58 49 78 141l-64 -1q-14 -58 -52 -90q-41 -33 -95 -33q-82 0 -114 53q-33 54 -34 126
h361zM409 286l-255 -1q6 64 42 103q35 38 88 38q57 0 90 -36q34 -38 35 -104zM273 607l72 -84h88l-101 145h-96l-109 -145h65z" />
    <glyph glyph-name="edieresis" unicode="&#xeb;" horiz-adv-x="558" 
d="M515 229v-1v50q-1 8 -1.5 15.5t-2.5 14.5q-1 3 -1 6q0 4 -1 8t-2 7.5t-3 8.5q-16 64 -77 105q-60 39 -141 39q-109 0 -174 -68q-65 -70 -65 -188q0 -109 66 -176t175 -67q86 0 147 50q58 49 78 141l-64 -1q-14 -58 -52 -90q-41 -33 -95 -33q-82 0 -114 53q-33 54 -34 126
h361zM409 286l-255 -1q6 64 42 103q35 38 88 38q57 0 90 -36q34 -38 35 -104zM178 659v-1q-23 0 -40 -17t-17 -41q0 -23 17 -40t40 -17t40 17t17 40q0 25 -16 41t-41 18zM380 659v-1q-23 0 -40 -17t-17 -41q0 -23 17 -40t40 -17t40 17t17 40q0 25 -16 41t-41 18z" />
    <glyph glyph-name="igrave" unicode="&#xec;" horiz-adv-x="346" 
d="M227 467h-197v-54l42 -1q38 0 48 -10q9 -11 9 -51v-236q0 -42 -9 -52t-42 -10h-6h-42v-53h289v53l-36 -1q-37 0 -46 11q-10 10 -10 53v351zM194 517h47l-63 147l-87 -1q-14 0 -19 -4q-7 -4 -7 -12q0 -2 1 -3v-4q2 -4 4 -6t4 -3.5t4 -3.5z" />
    <glyph glyph-name="iacute" unicode="&#xed;" horiz-adv-x="346" 
d="M227 467h-197v-54l42 -1q38 0 48 -10q9 -11 9 -51v-236q0 -42 -9 -52t-42 -10h-6h-42v-53h289v53l-36 -1q-37 0 -46 11q-10 10 -10 53v351zM132 517l117 109q6 6 8 9q2 2 4 6q0 2 1 3v3q0 7 -6 12q-6 3 -20 5h-88l-62 -147h46z" />
    <glyph glyph-name="icircumflex" unicode="&#xee;" horiz-adv-x="346" 
d="M227 467h-197v-54l42 -1q38 0 48 -10q9 -11 9 -51v-236q0 -42 -9 -52t-42 -10h-6h-42v-53h289v53l-36 -1q-37 0 -46 11q-10 10 -10 53v351zM153 607l72 -84h88l-101 145h-96l-109 -145h65z" />
    <glyph glyph-name="idieresis" unicode="&#xef;" horiz-adv-x="348" 
d="M227 467h-197v-54l42 -1q38 0 48 -10q9 -11 9 -51v-236q0 -42 -9 -52t-42 -10h-6h-42v-53h289v53l-36 -1q-37 0 -46 11q-10 10 -10 53v351zM55 659v-1q-22 0 -39 -17t-17 -41q0 -23 17 -40t39 -17q23 0 40 17t17 40q0 25 -16 41t-41 18zM257 659v-1q-23 0 -40 -17
t-17 -41q0 -23 17 -40t40 -17t40 17t17 40q0 25 -16 41t-41 18z" />
    <glyph glyph-name="ntilde" unicode="&#xf1;" horiz-adv-x="661" 
d="M221 467h-191v-54l36 -1q38 0 48 -10q9 -11 9 -51v-236q0 -42 -9 -52t-42 -10h-6h-36v-53h277v53l-30 -1q-37 0 -46 11q-10 10 -10 53v180q0 53 37 86q38 32 96 32q48 0 71 -26t23 -80v-193q0 -42 -9 -52t-42 -10h-6h-29v-53h273v53l-30 -1q-37 0 -46 11q-10 10 -10 53
v212q0 75 -43 115q-44 39 -118 39q-42 0 -71 -10q-30 -10 -59 -36l-10 -10l-10 -10q-5 -6 -10.5 -12t-10.5 -13zM457 651v-1q-2 -21 -10 -31q-9 -11 -26 -11q-22 0 -44 6q-20 4 -44 12q-11 3 -21.5 6t-21.5 6q-25 5 -45 5q-43 0 -67 -32q-24 -30 -26 -87l54 -1q2 26 8 35
q7 10 24 10h11t11 -1t10.5 -2t10.5 -3t11 -3t11 -3t11 -3.5t11 -3.5q11 -4 22 -7l22 -6q22 -6 44 -6q41 0 68 34t27 87h-51z" />
    <glyph glyph-name="ograve" unicode="&#xf2;" horiz-adv-x="598" 
d="M299 483v-1q-117 0 -184 -69q-69 -69 -69 -187q0 -113 73 -177q72 -66 181 -66q115 0 183 69q68 68 68 184q0 109 -70 178q-70 67 -182 69zM297 424v-1q69 0 107 -51q37 -50 37 -148q0 -87 -37 -134q-37 -49 -102 -49q-72 0 -109 48q-37 46 -37 140q0 89 38 142
q37 51 103 53zM340 516h47l-63 147l-87 -1q-14 0 -19 -4q-7 -4 -7 -12q0 -2 1 -3v-4q2 -4 4 -6t4 -3.5t4 -3.5z" />
    <glyph glyph-name="oacute" unicode="&#xf3;" horiz-adv-x="598" 
d="M299 483v-1q-117 0 -184 -69q-69 -69 -69 -187q0 -113 73 -177q72 -66 181 -66q115 0 183 69q68 68 68 184q0 109 -70 178q-70 67 -182 69zM297 424v-1q69 0 107 -51q37 -50 37 -148q0 -87 -37 -134q-37 -49 -102 -49q-72 0 -109 48q-37 46 -37 140q0 89 38 142
q37 51 103 53zM257 516l117 109q6 6 8 9q2 2 4 6q0 2 1 3v3q0 7 -6 12q-6 3 -20 5h-88l-62 -147h46z" />
    <glyph glyph-name="ocircumflex" unicode="&#xf4;" horiz-adv-x="598" 
d="M299 483v-1q-117 0 -184 -69q-69 -69 -69 -187q0 -113 73 -177q72 -66 181 -66q115 0 183 69q68 68 68 184q0 109 -70 178q-70 67 -182 69zM297 424v-1q69 0 107 -51q37 -50 37 -148q0 -87 -37 -134q-37 -49 -102 -49q-72 0 -109 48q-37 46 -37 140q0 89 38 142
q37 51 103 53zM292 607l72 -84h88l-101 145h-96l-109 -145h65z" />
    <glyph glyph-name="otilde" unicode="&#xf5;" horiz-adv-x="598" 
d="M299 483v-1q-117 0 -184 -69q-69 -69 -69 -187q0 -113 73 -177q72 -66 181 -66q115 0 183 69q68 68 68 184q0 109 -70 178q-70 67 -182 69zM297 424v-1q69 0 107 -51q37 -50 37 -148q0 -87 -37 -134q-37 -49 -102 -49q-72 0 -109 48q-37 46 -37 140q0 89 38 142
q37 51 103 53zM426 650v-1q-2 -21 -10 -31q-9 -11 -26 -11q-22 0 -44 6q-20 4 -44 12q-11 3 -21.5 6t-21.5 6q-25 5 -45 5q-43 0 -67 -32q-24 -30 -26 -87l54 -1q2 26 8 35q7 10 24 10h11t11 -1t10.5 -2t10.5 -3t11 -3t11 -3t11 -3.5t11 -3.5q11 -4 22 -7l22 -6q22 -6 44 -6
q41 0 68 34t27 87h-51z" />
    <glyph glyph-name="odieresis" unicode="&#xf6;" horiz-adv-x="598" 
d="M299 483v-1q-117 0 -184 -69q-69 -69 -69 -187q0 -113 73 -177q72 -66 181 -66q115 0 183 69q68 68 68 184q0 109 -70 178q-70 67 -182 69zM297 424v-1q69 0 107 -51q37 -50 37 -148q0 -87 -37 -134q-37 -49 -102 -49q-72 0 -109 48q-37 46 -37 140q0 89 38 142
q37 51 103 53zM197 659v-1q-23 0 -40 -17t-17 -41q0 -23 17 -40t40 -17t40 17t17 40q0 25 -16 41t-41 18zM399 659v-1q-23 0 -40 -17t-17 -41q0 -23 17 -40t40 -17t40 17t17 40q0 25 -16 41t-41 18z" />
    <glyph glyph-name="Aacute" unicode="&#xf7;" horiz-adv-x="278" 
 />
    <glyph glyph-name="OE" unicode="&#xf8;" horiz-adv-x="597" 
d="M457 433v-1q-4 2 -7 4.5t-6 4.5l-6 4t-7 4q-32 19 -61 26q-16 4 -34.5 5.5t-38.5 1.5q-114 0 -182 -68q-69 -69 -69 -183v-9t1 -9q0 -5 0.5 -10t1.5 -10q4 -35 18 -66q13 -32 33 -58l-59 -60l39 -37l59 58q33 -24 73 -35q40 -12 87 -12q116 0 184 69q67 68 67 187
q0 40 -11 76q-5 17 -14 34t-20 34q-1 2 -2 3t-2 3q-4 4 -5 7l54 55l-39 38zM194 88l232 235q1 -4 2 -7l2 -6q1 -4 1.5 -7t1.5 -7q4 -16 6 -35q1 -9 1 -19v-21q0 -87 -36 -133q-38 -47 -105 -47q-28 0 -48 7q-22 8 -41 24q-3 2 -8 7q-2 2 -4 4.5t-4 4.5zM401 375l-234 -238
q-2 11 -4 22.5t-4 22.5q-3 22 -3 47q0 91 38 143q37 51 103 51q34 0 61 -12q27 -14 43 -36z" />
    <glyph glyph-name="ugrave" unicode="&#xf9;" horiz-adv-x="652" 
d="M441 0h184v53l-30 -1q-37 0 -46 11q-10 10 -10 53v351h-191v-53l36 -1q38 0 48 -10q9 -11 9 -51v-177q0 -51 -35 -88q-36 -36 -89 -36q-55 0 -77 25q-23 26 -23 86v305h-191v-53l36 -1q38 0 48 -10q9 -11 9 -51v-205q0 -84 33 -124t124 -40q57 0 98 23q38 22 67 72v-78z
M366 516h47l-63 147l-87 -1q-14 0 -19 -4q-7 -4 -7 -12q0 -2 1 -3v-4q2 -4 4 -6t4 -3.5t4 -3.5z" />
    <glyph glyph-name="uacute" unicode="&#xfa;" horiz-adv-x="652" 
d="M441 0h184v53l-30 -1q-37 0 -46 11q-10 10 -10 53v351h-191v-53l36 -1q38 0 48 -10q9 -11 9 -51v-177q0 -51 -35 -88q-36 -36 -89 -36q-55 0 -77 25q-23 26 -23 86v305h-191v-53l36 -1q38 0 48 -10q9 -11 9 -51v-205q0 -84 33 -124t124 -40q57 0 98 23q38 22 67 72v-78z
M283 516l117 109q6 6 8 9q2 2 4 6q0 2 1 3v3q0 7 -6 12q-6 3 -20 5h-88l-62 -147h46z" />
    <glyph glyph-name="ucircumflex" unicode="&#xfb;" horiz-adv-x="652" 
d="M441 0h184v53l-30 -1q-37 0 -46 11q-10 10 -10 53v351h-191v-53l36 -1q38 0 48 -10q9 -11 9 -51v-177q0 -51 -35 -88q-36 -36 -89 -36q-55 0 -77 25q-23 26 -23 86v305h-191v-53l36 -1q38 0 48 -10q9 -11 9 -51v-205q0 -84 33 -124t124 -40q57 0 98 23q38 22 67 72v-78z
M318 607l72 -84h88l-101 145h-96l-109 -145h65z" />
    <glyph glyph-name="udieresis" unicode="&#xfc;" horiz-adv-x="652" 
d="M441 0h184v53l-30 -1q-37 0 -46 11q-10 10 -10 53v351h-191v-53l36 -1q38 0 48 -10q9 -11 9 -51v-177q0 -51 -35 -88q-36 -36 -89 -36q-55 0 -77 25q-23 26 -23 86v305h-191v-53l36 -1q38 0 48 -10q9 -11 9 -51v-205q0 -84 33 -124t124 -40q57 0 98 23q38 22 67 72v-78z
M223 659v-1q-23 0 -40 -17t-17 -41q0 -23 17 -40t40 -17t40 17t17 40q0 25 -16 41t-41 18zM425 659v-1q-23 0 -40 -17t-17 -41q0 -23 17 -40t40 -17t40 17t17 40q0 25 -16 41t-41 18z" />
    <glyph glyph-name="Egrave" unicode="&#xff;" horiz-adv-x="548" 
d="M300 97l-111 259q-1 1 -1 4q-1 1 -1 2t-1 2q-4 9 -6 17q-2 10 -2 12q0 10 9 15q7 3 30 5h43v54h-271l1 -56q38 0 56 -7t35 -43q0 -1 1 -2q0 -2 1 -2l163 -384q-29 -71 -58 -99q-31 -29 -74 -29q-17 0 -27 3q-11 3 -21 12q-1 1 -1.5 2t-1.5 2t-2 1.5t-2 1.5q32 0 49 15
q16 13 16 43q0 26 -17 45q-19 17 -46 17q-33 0 -53 -23t-20 -60q0 -51 33 -79q34 -29 89 -29q84 0 123 43q20 22 37 49t31 61q4 6 5 9q1 2 2 5t2 5l163 374q5 11 8.5 20t7.5 16q5 11 12 20q8 10 15 11l21 3h25v55h-226v-54l46 -1q19 0 27 -5q7 -6 7 -20v-1v-1q0 -4 -2 -12
q-1 -5 -6 -16zM193 659v-1q-23 0 -40 -17t-17 -41q0 -23 17 -40t40 -17t40 17t17 40q0 25 -16 41t-41 18zM395 659v-1q-23 0 -40 -17t-17 -41q0 -23 17 -40t40 -17t40 17t17 40q0 25 -16 41t-41 18z" />
  </font>
</defs>
</svg>
